<?xml version="1.0" encoding="utf-8"?>
<!-- Generator: Adobe Illustrator 22.1.0, SVG Export Plug-In . SVG Version: 6.00 Build 0)  -->
<svg version="1.1" id="Layer_1" xmlns="http://www.w3.org/2000/svg" xmlns:xlink="http://www.w3.org/1999/xlink" x="0px" y="0px"
	 viewBox="0 0 441.3 40.9" enable-background="new 0 0 441.3 40.9" xml:space="preserve">
<path fill="#0E9BFF" d="M9,0L0.1,0l-0.1,38.6l8,0c5.9,0,10.5-0.8,14.3-3.5c4.5-3.2,7.5-9.1,7.6-15.7C29.8,7.9,22.3,0.1,9,0z
	 M8.9,33.5l-3.2,0L5.8,5.1l3.9,0c9.1,0,14.2,5.8,14.1,14.3C23.8,28.4,18.7,33.5,8.9,33.5z M77.3,33.4l16.2,0.1l0,5.5l-22-0.1
	l0.1-38.6l18.9,0.1l-0.1,5.2l-13-0.1l0,10.7l11.6,0l0,5.4l-11.6,0L77.3,33.4z M138.7,0.5l5.8,0l-16.7,40l-8.6-20.2l-8.6,20.2
	L94.5,0.3l6,0l10.8,27.4l5.6-12.7l-6.5-14.6l5.9,0l3.5,8.6l3.5-8.5l5.3,0l-6.4,14.2l5.6,13.4L138.7,0.5z M174.7,0.4l-9.1,0
	l-0.1,39.3l8.1,0c6,0,10.6-0.8,14.5-3.5c4.6-3.3,7.7-9.2,7.7-16C195.9,8.4,188.3,0.4,174.7,0.4z M174.7,34.4h-3.2l0.1-28.8l3.9,0
	c9.2,0,14.4,5.9,14.4,14.5C189.8,29.2,184.6,34.4,174.7,34.4z M278.6,0.9l-0.1,38.5c0,0,0,0.5-0.3,0.6c-0.4,0.1-0.7-0.2-0.7-0.2
	l-23.8-26l-0.1,25.9l-5.7,0L248,2c0,0-0.1-0.8,0.6-0.9c0.5-0.1,1,0.5,1,0.5l23.4,25.4l0.1-26L278.6,0.9z M392.3,1.2l6.2,0l-0.1,38.1
	l-6.2,0l0.1-13.9l-19.9-0.1l-0.1,13.9l-6.2,0l0.1-38.1l6.2,0l-0.1,18.5l19.9,0.1L392.3,1.2z M441.3,1.3l-15.5,23.3l-0.1,0.1
	l-0.1,14.6l-6.2,0l0-14.5L404,1.2l7.3,0l11.3,18.1l11.6-18L441.3,1.3z M302.6-0.1c-0.7,0-1.1,1-1.1,1l-16.7,39l6.1,0l4.6-11.3l14,0
	L314,40l6.6,0L303.7,0.9C303.7,0.9,303.4-0.1,302.6-0.1z M307.1,22.9l-9.3,0l2.7-6.5c1-2.4,2-6,2-6s1,3.6,2,6L307.1,22.9z
	 M60.7,30.9c-2.1-3.4-3.7-5.9-4.9-7.3c-1-1.2-2-2.2-3.1-3l-0.2-0.2l0.3-0.1c1.8-0.8,3.3-2,4.3-3.4c1.1-1.6,1.7-3.6,1.7-5.8
	c0-3.3-1.1-6-3.4-7.9C53,1.3,49.9,0.3,46,0.3l-9.7,0l-0.1,38.5l5.8,0L42,22.1h1.3c1.7,0,3,0.2,3.7,0.6c0.7,0.4,1.6,1.1,2.5,2
	c0.9,0.9,2,2.2,3.1,3.7l3.5,5.8l1.1,1.5c0.2,0.2,0.3,0.4,0.3,0.5l1.7,2.6l6.9,0l-2.2-3C63.1,34.7,62,33.1,60.7,30.9z M49.6,16.3
	c-1,0.5-2.9,0.7-5.6,0.7l-1.9,0l0-11.7h1.5c2.6,0,4.6,0.2,5.7,0.6c1.1,0.4,2,1.1,2.6,2c0.6,0.9,0.9,2,0.9,3.2c0,1.2-0.3,2.2-0.8,3.2
	C51.3,15.1,50.6,15.8,49.6,16.3z M342.2,18.9l15.6,0.1l-0.1,15.7c-3.2,2.7-8.5,5.8-15.8,5.8c-11.7-0.1-19.8-8.1-19.7-19.8
	c0-11.1,8.7-19.7,19.7-19.7c5.9,0,10.1,1.4,14.3,4.9l-3.7,4.4c-2.9-2.4-5.9-4-10.9-4c-7.3,0-13.2,6.4-13.3,14.4
	c0,8.5,5.6,14.5,13.8,14.5c3.6,0,7.1-1.1,9.8-3l0.2-0.2l0-8.1l-10,0L342.2,18.9z M221.8,0.7c-11.4,0-20,8.4-20,19.6
	c0,11.3,8.5,19.7,19.8,19.7c11.4,0,20-8.4,20-19.6C241.6,9.2,233.1,0.7,221.8,0.7z M221.6,34.8c-7.7,0-13.8-6.4-13.7-14.5
	c0-8.3,5.9-14.4,13.7-14.3c7.7,0,13.8,6.4,13.7,14.5C235.3,28.7,229.4,34.8,221.6,34.8z"/>
</svg>
