<?xml version="1.0" encoding="utf-8"?>
<!-- Generator: Adobe Illustrator 22.1.0, SVG Export Plug-In . SVG Version: 6.00 Build 0)  -->
<svg version="1.1" xmlns="http://www.w3.org/2000/svg" xmlns:xlink="http://www.w3.org/1999/xlink" x="0px" y="0px"
	 viewBox="0 0 869.8 280.9" enable-background="new 0 0 869.8 280.9" xml:space="preserve">
<g id="Layer_1">
	<radialGradient id="SVGID_1_" cx="423.9138" cy="111.8072" r="800.7279" gradientUnits="userSpaceOnUse">
		<stop  offset="0" style="stop-color:#AFD24D"/>
		<stop  offset="0.3394" style="stop-color:#8EC951"/>
		<stop  offset="1" style="stop-color:#45B659"/>
	</radialGradient>
	<rect fill="url(#SVGID_1_)" width="869.8" height="287.6"/>
	<g opacity="0.24">
		<defs>
			<rect id="SVGID_2_" opacity="0.24" width="869.8" height="287.6"/>
		</defs>
		<clipPath id="SVGID_3_">
			<use xlink:href="#SVGID_2_"  overflow="visible"/>
		</clipPath>
		<g clip-path="url(#SVGID_3_)">
			<linearGradient id="SVGID_4_" gradientUnits="userSpaceOnUse" x1="756.2072" y1="173.9278" x2="950.7504" y2="173.9278">
				<stop  offset="0" style="stop-color:#AFD24D"/>
				<stop  offset="0.3394" style="stop-color:#8EC951"/>
				<stop  offset="1" style="stop-color:#45B659"/>
			</linearGradient>
			<polygon fill="url(#SVGID_4_)" points="804.3,51.8 756.2,288.9 855.3,296.1 888.9,227.5 823.1,226.3 834.6,206.5 873.1,207.2 
				889.9,175 837.2,174.1 862.4,125.2 911,126.1 950.8,54 			"/>
			<linearGradient id="SVGID_5_" gradientUnits="userSpaceOnUse" x1="634.7631" y1="204.6345" x2="802.8532" y2="204.6345">
				<stop  offset="0" style="stop-color:#AFD24D"/>
				<stop  offset="0.3394" style="stop-color:#8EC951"/>
				<stop  offset="1" style="stop-color:#45B659"/>
			</linearGradient>
			<path fill="url(#SVGID_5_)" d="M758.2,175.9l44.6-42.8c0,0-15.6-35.4-62.7-40.3s-96.4,28-104.6,110.9s51.2,121.4,106,111.7
				c33.9-5.9,47.9-38.1,47.9-38.1L751.3,225c0,0-9.9,25.5-38.8,18.9c-14-3.2-29.3-20.1-18.6-56.7C703.7,154,733.7,147.8,758.2,175.9
				z"/>
			<linearGradient id="SVGID_6_" gradientUnits="userSpaceOnUse" x1="466.905" y1="137.9686" x2="705.4412" y2="137.9686">
				<stop  offset="0" style="stop-color:#AFD24D"/>
				<stop  offset="0.3394" style="stop-color:#8EC951"/>
				<stop  offset="1" style="stop-color:#45B659"/>
			</linearGradient>
			<polygon fill="url(#SVGID_6_)" points="466.9,271.6 521.9,-10.9 584,-9.8 609.1,95.9 639.3,-8.9 705.4,-7.7 642.2,286.9 
				599,286.1 558,160.3 542.6,266.9 			"/>
			<linearGradient id="SVGID_7_" gradientUnits="userSpaceOnUse" x1="288.4486" y1="157.2503" x2="533.6397" y2="157.2503">
				<stop  offset="0" style="stop-color:#AFD24D"/>
				<stop  offset="0.3394" style="stop-color:#8EC951"/>
				<stop  offset="1" style="stop-color:#45B659"/>
			</linearGradient>
			<path fill="url(#SVGID_7_)" d="M311.9,50.1l89.2-5.5c0,0-23.2,30.3-29.4,57.2c-4.8,20.6-1.7,37.4,17.5,39.8
				c19.2,2.4,32.7-18,41.1-35.7c14.7-31.1,14.1-53.4,14.1-53.4l89.2-3.5c0,0-28.3,225.3-169,220.8C261.4,268,284.1,131.7,311.9,50.1
				z"/>
			<linearGradient id="SVGID_8_" gradientUnits="userSpaceOnUse" x1="156.5247" y1="114.3253" x2="340.3565" y2="114.3253">
				<stop  offset="0" style="stop-color:#AFD24D"/>
				<stop  offset="0.3394" style="stop-color:#8EC951"/>
				<stop  offset="1" style="stop-color:#45B659"/>
			</linearGradient>
			<path fill="url(#SVGID_8_)" d="M276.3,13.1c-48.4-0.9-100,43.8-115.4,99.7s11.3,102,59.7,102.8c48.4,0.9,100-43.8,115.4-99.7
				S324.7,13.9,276.3,13.1z M281.2,107.1c-3.8,13.6-13.8,24.6-22.5,24.4c-8.7-0.2-12.6-11.3-8.9-25c3.8-13.6,13.8-24.6,22.5-24.4
				C281,82.3,285,93.5,281.2,107.1z"/>
			<linearGradient id="SVGID_9_" gradientUnits="userSpaceOnUse" x1="-94.5639" y1="193.3972" x2="198.3154" y2="193.3972">
				<stop  offset="0" style="stop-color:#AFD24D"/>
				<stop  offset="0.3394" style="stop-color:#8EC951"/>
				<stop  offset="1" style="stop-color:#45B659"/>
			</linearGradient>
			<path fill="url(#SVGID_9_)" d="M197.6,163.4c-5.5-40.7-67.3-30-77.7-29.4c17.3-13.9,50.4-67.5,39.3-104.9
				C148.2-8.2,66.7-10.5,3.2,26.5s-93.4,81.9-93.4,81.9l-4.4,67.2c0,0,37.5-41,70.6-43.5l-20.6,254.8c0,0,93.5-24.6,167.7-86.8
				C178.8,253.4,203.1,204.1,197.6,163.4z M13.1,151.7l-1.8-38.1c0,0,32.2-18,32.1-2.6C43.3,126.3,13.1,151.7,13.1,151.7z
				 M31.7,286.8l-1.8-38.1c0,0,26.4-9.6,26.2,5.7C56,269.7,31.7,286.8,31.7,286.8z"/>
		</g>
	</g>
	<g opacity="0.12">
		<defs>
			<rect id="SVGID_10_" opacity="0.12" width="869.8" height="287.6"/>
		</defs>
		<clipPath id="SVGID_11_">
			<use xlink:href="#SVGID_10_"  overflow="visible"/>
		</clipPath>
	</g>
	<g id="New_Symbol">
		<linearGradient id="SVGID_12_" gradientUnits="userSpaceOnUse" x1="433.4882" y1="237.1797" x2="433.4882" y2="66.0838">
			<stop  offset="0" style="stop-color:#AFD24D"/>
			<stop  offset="0.3394" style="stop-color:#8EC951"/>
			<stop  offset="1" style="stop-color:#45B659"/>
		</linearGradient>
		<path fill="url(#SVGID_12_)" d="M804.3,128.6c-3.3-4-7.2-7.2-10.9-9.6L809,90.4l-10.5-7c-18.6-12.3-38.5-13.9-53.7-4.5L674,78.7
			l-0.5,5.3l-40.1,3.1C627.1,80,618.1,76,608.1,76c-9.4,0-19,3.4-27.5,9.6c-3-4.5-7.6-8.1-13.4-10.3c-15-5.7-36.9-2.3-54.6,8.3
			c-18.7,11.3-29.5,24.6-33,29.4l-32.8-65.6l-22.5-0.1l-12.6,37.3l-65.8,0l-2.7,14.4c-1.7-0.4-3.5-0.6-5.2-0.8
			c-0.9-0.1-1.7-0.1-2.6-0.1l6.4-32.2l-87.7-0.3l-3,16.9l-39.6,2.8c-6.3-7-15.1-10.8-25.2-10.8c-9.4,0-19,3.4-27.5,9.6
			c-3-4.5-7.6-8.1-13.4-10.3c-15-5.7-36.9-2.3-54.6,8.3C67.7,96,56.7,112.8,56.3,113.5l-2,3.1L51,181l22.7-25.5l-4.9,73.9l18.7-5.2
			c1.4-0.4,33.4-9.5,59.2-31.7c9-7.8,16-16,20.9-24.5c4.9,0.2,9.9-0.6,14.9-2.3c6.4,12.4,17.9,19.1,33.1,19.2
			c6.1,0.1,11.9-0.8,17.4-2.6l-0.7,4.1l47.5-3.7l2.2,6.4l23.6,0.1c9.7,7.8,22.6,10.9,35.2,8.5c5.7-1.1,11.1-3.7,15.6-7.6l19.2,1.1
			l-6.7,19.6l71.7-6l2.7-15l7.7,14.4l42.4-9.4l-2.4,36l18.7-5.2c1.4-0.4,33.4-9.5,59.2-31.7c9-7.8,16-16,20.9-24.5
			c6.1,0.2,12.4-1,18.4-3.6c6.2,13.1,18.1,20.5,33.8,20.5l0.8,0c11.9,0,26.7-3.7,39.8-17.9l-5.5,23.4l43.1,0.1l-0.3,1.2l8.4,5.5
			c15,9.8,33.5,12.9,50.8,8.3c13.8-3.6,25.3-11.9,30.6-22.2C819.6,165.5,817.7,145,804.3,128.6z"/>
		
			<linearGradient id="SVGID_13_" gradientUnits="userSpaceOnUse" x1="-8517.373" y1="-7719.2651" x2="-8517.373" y2="-7561.6855" gradientTransform="matrix(1.3114 4.356335e-03 -4.356335e-03 1.3114 11569.7744 10198.2012)">
			<stop  offset="0" style="stop-color:#F89A1C"/>
			<stop  offset="1" style="stop-color:#EC1C24"/>
		</linearGradient>
		<path fill="url(#SVGID_13_)" d="M804.3,123.7c-3.3-4-7.2-7.2-10.9-9.6L809,85.5l-10.5-7C779.9,66.2,760,64.6,744.7,74L674,73.8
			l-0.5,5.3l-40.1,3.1c-6.4-7.1-15.4-11.1-25.4-11.1c-9.4,0-19,3.4-27.5,9.6c-3-4.5-7.6-8.1-13.4-10.3c-15-5.7-36.9-2.3-54.6,8.3
			c-18.7,11.3-29.5,24.6-33,29.4l-32.8-65.6l-22.5-0.1l-12.6,37.3l-65.8,0l-2.7,14.4c-1.7-0.4-3.5-0.6-5.2-0.8
			c-0.9-0.1-1.7-0.1-2.6-0.1l6.4-32.2l-87.7-0.3l-3,16.9l-39.6,2.8c-6.3-7-15.1-10.8-25.2-10.8c-9.4,0-19,3.4-27.5,9.6
			c-3-4.5-7.6-8.1-13.4-10.3c-15-5.7-36.9-2.3-54.6,8.3c-22.9,13.8-33.9,30.6-34.3,31.3l-2,3.1L51,176.1l22.7-25.5l-4.9,73.9
			l18.7-5.2c1.4-0.4,33.4-9.5,59.2-31.7c9-7.8,16-16,20.9-24.5c4.9,0.2,9.9-0.6,14.9-2.3c6.4,12.4,17.9,19.1,33.1,19.2
			c6.1,0.1,11.9-0.8,17.4-2.6l-0.7,4.1l47.5-3.7l2.2,6.4l23.6,0.1c9.7,7.8,22.6,10.9,35.2,8.5c5.7-1.1,11.1-3.7,15.6-7.6l19.2,1.1
			l-6.7,19.6l71.7-6l2.7-15l7.7,14.4l42.4-9.4l-2.4,36l18.7-5.2c1.4-0.4,33.4-9.5,59.2-31.7c9-7.8,16-16,20.9-24.5
			c6.1,0.2,12.4-1,18.4-3.6c6.2,13.1,18.1,20.5,33.8,20.5l0.8,0c11.9,0,26.7-3.7,39.8-17.9l-5.5,23.4l43.1,0.1l-0.3,1.2l8.4,5.5
			c15,9.8,33.5,12.9,50.8,8.3c13.8-3.6,25.3-11.9,30.6-22.2C819.6,160.5,817.7,140.1,804.3,123.7z"/>
		<g>
			<path fill="#231F20" d="M387.6,143.5l8.5-17l-17.1-0.1l1.4-2.8l15.6,0.1L415.5,87l-63.8,0l-3.1,16.6c-3.2-1.5-7-2.6-11.5-3
				c-3.7-0.3-7.4-0.1-10.9,0.8l6.6-33.2l-34.4-0.1l-4,14.8l-3.8-14.9L260,68L256.4,88l-16,0.9l-2.5,0.1l2.6-3.5L208,87.9
				c-5-7-12.8-11-21.9-11c-11.1,0-22.2,5.7-30.7,14.8c-0.2-1.5-0.5-3-0.9-4.5c-1.1-3.6-4.1-8.6-11.8-11.5
				c-12.8-4.9-32.7-1.7-48.4,7.8c-21.4,12.9-31.6,28.4-32,29l-0.9,1.5L59.3,156l12.4-13.9c2.4-2.7,6.4-6.4,10.5-9l-5.4,81.6l8.9-2.5
				c1.3-0.4,31.8-9.1,56.4-30.2c9.8-8.5,17.2-17.6,21.5-26.7c1.7,0.3,3.5,0.5,5.4,0.5c5.8,0,11.8-1.6,17.5-4.6
				c4.3,13.9,14.4,21.5,29.3,21.5c9.8,0.2,18.9-2.7,26.9-8.4l-1.6,9.2l38.3-3l1.6-12l6.3,18.4l21.1,0.1c8.1,7.5,19.5,10.9,31.1,8.7
				c6.4-1.2,11.1-4.6,14.3-7.9l25.2,1.5l16.9-35.7L387.6,143.5z M328.4,139.6c0.7-2.6,2-4.4,3.4-4.7c0.2,0,0.4-0.1,0.6-0.1
				c1.6,0,3.6,1.3,5.6,3.4l0.1,0.1l-3.4,9.1c-0.3,0.7-1.4,2.9-5,2.2c-0.2-0.1-0.8-0.3-1.4-1.1C327.8,147.8,326.8,145.2,328.4,139.6z
				 M234.1,94l0.1,1.6c0,0.1,0.1,6-3.7,14.4c-2.6,5.7-5.1,8.1-6.5,8c-0.2,0-0.3,0-0.4-0.1c-0.1-0.5-0.4-1.9,0.3-4.8
				c1.3-6,6.3-13.7,8.1-16.1L234.1,94z"/>
			<path fill="#231F20" d="M798.7,128.3c-4.1-5-9.6-8.7-14.9-11.7l15.7-28.8l-5-3.3c-17-11.2-34.6-12.4-47.6-3.3L680.6,81l-0.8,8.6
				l-13.3,0.7l-2.5,0.1l2.6-3.5l-36.4,2.8c-5-7.2-13-11.3-22.1-11.4c-11.1,0-22.2,5.7-30.7,14.8c-0.2-1.5-0.5-3-0.9-4.5
				c-1.1-3.6-4.1-8.6-11.8-11.5c-12.8-4.9-32.7-1.7-48.4,7.8c-21.4,12.9-31.6,28.4-32,29l-1,1.5l-0.8,15l-40.3-80.6l-12.9,0
				l-50.2,148l55.2-4.6l3.3-17.9l7.6-2l9.5,17.8l46.4-10.3l-2.4,35.4l8.9-2.5c1.3-0.4,31.8-9.1,56.4-30.2
				c9.8-8.5,17.2-17.6,21.5-26.7c1.7,0.3,3.5,0.5,5.4,0.5c7.1,0,14.4-2.4,21.1-6.7c5,20.2,20.3,23.6,29.9,23.6c0.2,0,0.5,0,0.7,0
				c23,0.1,40.8-15.8,51.8-45.9l4-1.1l-12.3,52.5l39.2,0.1l11.3-57.2c3.4,5.4,8.7,9.8,15.4,12.6c11.9,4.9,13.7,8.7,13.9,9.3
				l-0.1,0.5c-0.1,0.6-0.3,1-0.5,1.1c-1.9,1-7.7-0.3-11.6-2.2l-5.9-2.8l-2.8,5.9c-15,31.5-15.4,32.9-15.6,33.5l-1.3,4.6l4,2.6
				c13.3,8.7,29.7,11.4,45,7.4c11.9-3.1,21.6-10,26-18.5C812,159.7,810.4,142.5,798.7,128.3z M660.3,95.4l0.1,1.6
				c0,0.1,0.1,6-3.7,14.4c-2.6,5.7-5.1,8.1-6.5,8c-0.2,0-0.3,0-0.4-0.1c-0.1-0.5-0.4-1.9,0.3-4.8c1.3-6,6.3-13.7,8.1-16.1
				L660.3,95.4z M490.8,146.8l2.8-3.2c2.1-2.3,6.2-6.2,10.5-9l-2.3,34.3L490.8,146.8z"/>
		</g>
		<g opacity="0.76">
			<polygon fill="#545456" points="392.7,146.8 393.6,144.8 387.6,144.8 386.6,146.8 			"/>
			<polygon fill="#545456" points="378.1,129.7 392.9,129.8 393.9,127.8 379.1,127.8 			"/>
			<path fill="#545456" d="M331.5,153c0.6,0.1,1.2,0.2,1.8,0.2c3,0,4.7-1.8,5.4-3.6l3.8-10.2l-0.9-1c-0.2-0.2-0.4-0.4-0.6-0.6
				l-3.7,9.8c-0.6,1.7-2.4,3.6-5.4,3.6c-0.6,0-1.1-0.1-1.8-0.2c-0.4-0.1-1.1-0.3-1.7-0.9c0.1,0.4,0.3,0.7,0.4,0.9
				C329.7,152.5,330.9,152.9,331.5,153z"/>
			<path fill="#545456" d="M326.5,102.9l-0.5,2.4l2.9-0.7c2.4-0.6,5-0.9,7.5-0.9c0.9,0,1.9,0,2.8,0.1c3.9,0.3,7.5,1.3,10.8,2.8
				l2.2,1l3.3-17.4l56.7,0l1-2l-59.1,0l-3.3,17.4l-2.2-1c-3.3-1.5-7-2.5-10.8-2.8c-0.9-0.1-1.9-0.1-2.8-0.1c-2.5,0-5.1,0.3-7.5,0.9
				L326.5,102.9z"/>
			<polygon fill="#545456" points="296.5,91.8 302.1,71.4 331,71.5 331.4,69.5 300.8,69.4 295.6,88.3 			"/>
			<path fill="#545456" d="M739.1,121.1c0.2,0.3,0.5,0.7,0.7,1l-1.9-3.1l0,0.1L739.1,121.1z"/>
			<path fill="#545456" d="M662.9,93l0.1,3.4c0,0.1,0.1,6.4-3.9,15.3c-1.5,3.4-4.6,9.1-8.1,9.1l-0.2,0l-0.1,0
				c-0.3,0-0.5-0.1-0.7-0.1l-0.2,0c0,0.3,0.1,0.5,0.1,0.7l0.3,1l1.1,0.3c0.2,0,0.4,0.1,0.7,0.1l0.1,0l0.2,0c3.4,0,6.5-5.7,8.1-9.1
				c4-8.9,3.9-15.2,3.9-15.3l-0.2-4.6l4.6-0.2l14.9-0.8l0.8-8.5l65.1,0.2l0.5-0.3c5.5-3.8,11.8-5.8,18.7-5.7c8.6,0,17.9,3.2,26.8,9
				l1.8,1.2l0.4-0.8l-3.6-2.4c-8.9-5.9-18.2-9-26.8-9c-6.9,0-13.2,1.9-18.7,5.7l-0.5,0.3l-65.1-0.2l-0.8,8.5l-14.9,0.8l-3.6,0.2
				L662.9,93z"/>
			<path fill="#545456" d="M785.1,119.7c4.5,2.5,10.1,6.1,14.4,11.2c0.9,1.1,1.7,2.2,2.4,3.3c-1.1-1.8-2.3-3.5-3.8-5.3
				c-4.2-5.1-9.7-8.6-14.2-11.1l-0.5,0.9L785.1,119.7z"/>
			<polygon fill="#545456" points="508.4,132.4 506.9,133.4 504.2,174.9 505.4,177.4 			"/>
			<path fill="#545456" d="M578.1,98.9l2.8-3c8.4-9.1,19.1-14.3,29.3-14.2c8.4,0,16,3.9,20.6,10.5l0.6,0.9l30.4-2.3l1.6-2.2
				l-33.3,2.5l-0.6-0.9c-4.6-6.7-12.2-10.5-20.6-10.5c-10.2,0-20.9,5.2-29.3,14.2l-1.8,2L578.1,98.9z"/>
			<path fill="#545456" d="M236.7,91.6l0.1,3.5c0,0.3,0.1,6.5-3.9,15.2c-1.5,3.4-4.7,9.1-8.1,9.1l-0.2,0l-0.1,0
				c-0.3,0-0.5-0.1-0.7-0.1l-0.2,0c0,0.3,0.1,0.5,0.1,0.7l0.3,1l1.1,0.3c0.2,0,0.4,0.1,0.7,0.1l0.1,0l0.2,0c3.4,0,6.5-5.7,8.1-9.1
				c4-8.7,3.9-15,3.9-15.2l-0.2-4.6l4.6-0.2l17.5-0.9l3.6-20l26.8,0.1l-0.5-2l-27.6-0.1l-3.6,20l-17.5,0.9l-3.6,0.2L236.7,91.6z"/>
			<path fill="#545456" d="M486.3,139.1l1.1-21.7l0.7-1c0.4-0.6,10.3-15.7,31.4-28.4c10.3-6.2,22.7-9.8,33.8-9.7
				c4.9,0,9.2,0.7,12.9,2.1c4,1.5,6.6,3.6,8.3,5.8c-1.5-2.8-4.3-5.8-9.6-7.8c-3.7-1.4-8-2.1-12.9-2.1c-11.1,0-23.4,3.5-33.8,9.7
				c-21.1,12.7-30.9,27.8-31.4,28.4l-0.7,1l-1.1,21.1L486.3,139.1z"/>
			<path fill="#545456" d="M616,151.5l-0.6-2.6l-0.7,0.5l0,0.2c1.2,4.8,3,8.6,5.2,11.6C618.3,158.5,616.9,155.3,616,151.5z"/>
			<polygon fill="#545456" points="432.9,53 443,53.1 442,51.1 431.6,51.1 382.7,195 384.8,194.9 			"/>
			<polygon fill="#545456" points="448.3,172.5 448.1,172.6 456.5,188.4 456.8,188.3 			"/>
			<polygon fill="#545456" points="505.3,179.8 503.8,180.1 501.6,213.1 503.1,212.7 			"/>
			<path fill="#545456" d="M733.4,182.4c0.4-1.3,5.4-12.1,15.5-33.2l2-4.2l4.2,2c3.3,1.6,7.6,2.7,10.4,2.7c1.2,0,2.1-0.2,2.8-0.5
				c1.1-0.6,1.4-1.9,1.5-2.4l0.2-0.9l-0.2-0.5c-0.1-0.4-0.5-1.1-1.3-2.1c0,0,0,0.1,0,0.1l0.2,0.5l-0.2,0.9c-0.1,0.5-0.3,1.9-1.5,2.4
				c-0.7,0.4-1.6,0.5-2.8,0.5c-2.8,0-7.1-1.1-10.4-2.7l-4.2-2l-2,4.2c-10.1,21.1-15.1,32-15.5,33.2l-0.9,3.3l1.6,1L733.4,182.4z"/>
			<polygon fill="#545456" points="703.1,125.9 701.2,126.4 689.3,177.2 691,177.2 			"/>
			<polygon fill="#545456" points="86.4,131 84.9,131.9 79.6,211.7 81.1,211.3 			"/>
			<polygon fill="#545456" points="284.8,159.3 284.1,159.4 289.3,174.5 289.9,174.5 			"/>
			<path fill="#545456" d="M65.4,116l0.7-1c0.4-0.6,10.3-15.7,31.4-28.4c10.3-6.2,22.7-9.8,33.8-9.7c4.9,0,9.2,0.7,12.9,2.1
				c4,1.5,6.6,3.6,8.3,5.8c-1.5-2.7-4.3-5.8-9.6-7.8c-3.7-1.4-8-2.1-12.9-2.1c-11.1,0-23.4,3.5-33.8,9.7
				C75,97.3,65.2,112.3,64.7,113l-0.7,1l-1.8,36.2l1.5-1.7L65.4,116z"/>
			<path fill="#545456" d="M189.1,150.2c1.1,3.6,2.7,6.7,4.6,9.4c-1.3-2.2-2.5-4.7-3.3-7.5l-0.7-2.2L189.1,150.2z"/>
			<polygon fill="#545456" points="247.5,161.5 245.6,162.8 244.1,170.8 245.8,170.7 			"/>
			<path fill="#545456" d="M156.1,97.5l2.8-3c8.4-9.1,19.1-14.3,29.3-14.2c8.5,0,15.7,3.7,20.4,10.2l0.6,0.9l26.4-2l0.9-1.2l0.7-1
				l-29.3,2.2l-0.6-0.9c-4.7-6.6-11.9-10.2-20.4-10.2c-10.2,0-20.9,5.2-29.3,14.2l-1.8,2L156.1,97.5z"/>
		</g>
		<polygon fill="#333132" points="359.1,96.7 344.7,173.7 376.8,175.5 387.4,153.2 366.1,153.1 369.7,146.6 382.1,146.7 
			387.4,136.2 370.4,136.1 378.3,120.2 394,120.2 406.6,96.7 		"/>
		<polygon fill="#FFFFFF" points="358.1,92.9 343.6,169.9 375.8,171.7 386.3,149.4 365,149.3 368.6,142.8 381.1,142.9 386.4,132.4 
			369.3,132.3 377.3,116.4 393,116.4 405.5,92.9 		"/>
		<g>
			<polygon fill="#D1D3D4" points="394.7,96.1 388.2,108.3 372.4,108.3 361.7,129.8 368.6,129.9 376.6,113.9 392.3,113.9 
				401.9,96.1 			"/>
			<polygon fill="#D1D3D4" points="363.9,134.7 357.1,146.8 364.4,146.8 368,140.3 380.4,140.4 382.9,135.5 365.8,135.5 
				366.2,134.7 			"/>
			<polygon fill="#D1D3D4" points="370.9,163.5 349.1,162.2 348.1,167.6 375.1,169.1 382.9,152.5 376.1,152.5 			"/>
		</g>
		<path fill="#333132" d="M347.8,135l14.3-14.1c0,0-6.2-13.4-21.5-14.7c-15.3-1.4-30.1,11.5-32.3,38.4s9.5,37.3,27.5,37.3
			c16.3,0,22.7-14.1,22.7-14.1l-12.6-16.8c0,0-3.1,8.3-12.5,6.3c-4.6-1-9.6-6.4-6.3-18.3C330.1,128.2,339.8,126,347.8,135z"/>
		<path fill="#FFFFFF" d="M343.8,133.3l14.3-14.1c0,0-5.2-11.4-20.5-12.7c-15.3-1.4-31.1,9.5-33.3,36.4s17.1,39.1,34.9,35.7
			c10.9-2.1,15.3-12.6,15.3-12.6l-12.6-16.8c0,0-3.1,8.3-12.5,6.3c-4.6-1-9.6-6.4-6.3-18.3C326,126.4,335.7,124.3,343.8,133.3z"/>
		<g>
			<path fill="#D1D3D4" d="M340.7,124c-3.3-2.9-6.9-4.4-10.4-4.5c-6,0-11.1,4.4-13.1,11.7c-2.3,8.4-0.8,13.5,1,16.4
				c0.8,1.4,1.9,2.5,3.1,3.4c-1.2-3.1-1.7-7.6,0.1-14.2c2-7.2,7-11.7,13.1-11.7c3.5,0,7.2,1.6,10.4,4.5l10.7-10.5
				c-0.9-1.3-2.5-3.2-4.8-5L340.7,124z"/>
			<path fill="#D1D3D4" d="M335.4,170.5c-1.8,0.3-3.6,0.5-5.4,0.5c-7.2,0-13.7-2.7-18.5-7.6c1,1.8,2.2,3.5,3.6,5.1
				c4.8,5.2,11.6,8.1,19,8.2c1.8,0,3.6-0.2,5.4-0.5c7-1.3,11-6.9,12.5-9.5l-4.2-5.6C346.4,163.7,342.4,169.1,335.4,170.5z"/>
		</g>
		<polygon fill="#333132" points="253.3,170.7 269.8,79 289.9,79 298.6,113.2 307.8,79.1 329.3,79.2 310.1,174.8 296.2,174.8 
			282.3,134.3 277.8,168.8 		"/>
		<polygon fill="#FFFFFF" points="249.9,165.6 266.4,73.9 286.5,73.9 295.1,108.1 304.4,74 325.8,74.1 306.7,169.7 292.7,169.7 
			278.9,129.2 274.4,163.7 		"/>
		<path fill="#333132" d="M200.9,98.8l30.1-7c0,0-8.6,14.8-10.5,23.5c-1.4,6.7-0.4,12.1,5.9,12.8c6.2,0.7,10.5-6,13.2-11.8
			c4.6-10.1,4.3-21.4,4.3-21.4l32.9-4.5c0,0-12.1,80.1-57.7,79.3C185.6,169.6,192.3,125.3,200.9,98.8z"/>
		<path fill="#FFFFFF" d="M198.7,94.6l28.9-2.2c0,0-7.4,9.9-9.2,18.7c-1.4,6.7-0.4,12.1,5.9,12.8c6.2,0.7,10.5-6,13.2-11.8
			c4.6-10.1,4.3-15.4,4.3-15.4l28.9-2.5c0,0-8.1,72.1-53.7,71.3C183.3,165.4,190,121.2,198.7,94.6z"/>
		<path fill="#FFFFFF" d="M439.2,55.7l-4.2,0l-45.5,134l40.2-3.4l3.1-17l16.6-4.3l9.6,17.9l39.4-8.7L439.2,55.7z M432.5,157.7
			l5.1-23.4l9.3,19.5L432.5,157.7z"/>
		<path fill="#FFFFFF" d="M791.8,89.3L780,111.1c0,0-13.1-12.9-15.9-3.8c-2.6,8.3,20.1,11.9,30.5,24.6c11.1,13.5,10.4,28.3,3.7,41.1
			c-7.8,15.1-37.7,24.4-61.6,8.7c0.4-1.5,15.2-32.5,15.2-32.5s19,9,21.3-3.7c1.3-4.6-2.7-10.7-17.7-17
			c-13.9-5.8-20.2-19.8-11.9-33.9C751.9,80.5,770.8,75.5,791.8,89.3z"/>
		<path fill="#333132" d="M189.9,82c-15.7-0.1-32.2,18.6-36.9,36.8s4.1,33,19.8,33c15.7,0.1,32.2-14.6,36.9-32.8
			S205.6,82.1,189.9,82z M191.9,116.5c-1.2,4.4-4.4,8-7.2,8c-2.8,0-4.1-3.6-3-8c1.2-4.4,4.4-8,7.2-8
			C191.8,108.4,193.1,112,191.9,116.5z"/>
		<path fill="#FFFFFF" d="M187,82.8c-15.7-0.1-32.2,14.6-36.9,32.8c-4.7,18.2,4.1,33,19.8,33c15.7,0.1,32.2-14.6,36.9-32.8
			C211.5,97.6,202.6,82.8,187,82.8z M189,113.2c-1.2,4.4-4.4,8-7.2,8c-2.8,0-4.1-3.6-3-8c1.2-4.4,4.4-8,7.2-8
			C188.8,105.2,190.1,108.8,189,113.2z"/>
		<g>
			<path fill="#D1D3D4" d="M263,96.9c-3.9,19-16.1,60.7-48.7,60.5l-0.6,0c-6.3,0-11.1-1.7-14.6-5c0.5,1.1,1.1,2.1,1.8,3
				c3.7,5.1,9.3,7.6,17,7.6l0.6,0c36.6,0.1,47.5-52.5,49.8-66.4L263,96.9z"/>
			<path fill="#D1D3D4" d="M212.4,105.2c-1.2,5.4-0.7,9.6,1.3,12.5c0.6,0.8,1.4,1.7,2.7,2.4c-0.7-2.5-0.7-5.6,0.1-9.2
				c1.1-5.3,4.1-10.9,6.5-14.8l-7.5,0.6C214.2,99.3,213,102.3,212.4,105.2z"/>
		</g>
		<g>
			<polygon fill="#D1D3D4" points="318.1,77.2 301.3,161.6 293.9,161.6 295.8,167.2 305.4,167.2 323.4,77.2 			"/>
			<polygon fill="#D1D3D4" points="291.9,113.9 293.3,108.7 285.3,77.1 282.6,77.1 			"/>
			<polygon fill="#D1D3D4" points="278.4,123 273,123.5 268.8,155.8 255.5,156.8 254.4,162.9 272.9,161.4 277.1,129.1 280.4,128.8 
							"/>
		</g>
		<g>
			<polygon fill="#D1D3D4" points="425.6,156.4 431.3,154.8 437.2,128.1 433.5,120.4 			"/>
			<polygon fill="#D1D3D4" points="448.2,157 429.8,162 430,161 427.3,161.7 424.3,178.4 396.7,180.7 394.7,186.8 428.4,184 
				431.5,167.3 451,162.3 			"/>
			<polygon fill="#D1D3D4" points="438.5,58.8 438.1,58.8 437.7,60 491.2,166.9 458.5,174.2 461.6,180 495.3,172.5 			"/>
		</g>
		<g>
			<path fill="#D1D3D4" d="M745.6,115.5c2.2,4.6,6.4,8.3,12,10.7c7.1,2.9,11.8,5.9,14.8,8.7c-1.7-4.3-6.9-9.2-19-14.3
				C750.3,119.3,747.7,117.6,745.6,115.5z"/>
			<path fill="#D1D3D4" d="M776.1,101.3c-2.9-2.3-7.3-5.4-11.2-5.4c-3.2,0-5.6,1.9-6.6,5.2c-1.2,3.8,0.7,6.7,3.9,9.3
				c-0.3-1.1-0.2-2.3,0.2-3.6c1.1-3.3,3.5-5.2,6.6-5.2c3.9,0,8.4,3,11.2,5.4l8.8-16.3c-1.9-1.1-3.7-2.1-5.6-2.9L776.1,101.3z"/>
			<path fill="#D1D3D4" d="M793.4,134c-0.3-0.3-0.5-0.6-0.8-0.9c7.6,12.6,4.4,24.8,0,33.3c-4.6,8.9-18.1,15.3-32.1,15.3
				c-6.3,0-12.4-1.3-18.1-3.7c-0.5,1.1-1,2.1-1.3,2.9c7.1,4.2,15.2,6.4,23.5,6.4c14,0,27.4-6.4,32.1-15.3
				C801.7,162.5,805.1,148.2,793.4,134z"/>
		</g>
		<g>
			<path fill="#D1D3D4" d="M176.8,118.4c-0.3-1.7-0.2-3.6,0.3-5.6c1.5-5.8,5.8-10.1,9.9-10.1c0.7,0,1.3,0.1,1.9,0.3
				c-0.2-1.4-0.7-2.7-1.5-3.7c-1.1-1.5-2.8-2.3-4.6-2.3c-4.2,0-8.4,4.3-9.9,10.1c-1,3.7-0.5,7.1,1.1,9.3
				C174.9,117.4,175.8,118.1,176.8,118.4z"/>
			<path fill="#D1D3D4" d="M201.9,92.5c-0.6-0.8-1.3-1.5-2.1-2.2c2.5,5.3,3,12.2,1.1,19.5c-4.4,17-19.7,30.8-34.2,30.7
				c-4.7,0-8.7-1.5-11.9-4.4c0.6,1.2,1.3,2.4,2.1,3.4c3.3,4.3,8.1,6.6,13.9,6.6c14.4,0,29.7-13.7,34.2-30.7
				C207.4,106.5,206.3,98.1,201.9,92.5z"/>
		</g>
		<path fill="#333132" d="M168.1,131.5c-2-13.1-21.9-9.4-25.3-9.1c5.5-4.6,16-22.1,12.2-34.1c-3.8-12-30.2-12.4-50.5-0.1
			s-29.8,27-29.8,27l-1.1,21.8c0,0,11.9-13.5,22.6-14.4L90.7,205c0,0,30.1-8.4,53.9-28.9C162.4,160.8,170,144.7,168.1,131.5z
			 M108.3,128.6l-0.8-12.3c0,0,10.3-6,10.4-1C117.9,120.2,108.3,128.6,108.3,128.6z M114.9,172.3l-0.8-12.3c0,0,8.5-3.2,8.5,1.7
			C122.7,166.6,114.9,172.3,114.9,172.3z"/>
		<path fill="#FFFFFF" d="M162.2,131.8c-2-13.1-21.9-9.4-25.3-9.1c5.5-4.6,16-22.1,12.2-34.1c-3.8-12-30.2-12.4-50.5-0.1
			s-29.8,27-29.8,27l-1.1,21.8c0,0,11.9-13.5,22.6-14.4l-5.5,82.6c0,0,30.1-8.4,53.9-28.9C156.5,161.1,164.1,145,162.2,131.8z
			 M102.4,128.9l-0.8-12.3c0,0,10.3-6,10.4-1C112,120.5,102.4,128.9,102.4,128.9z M109,172.6l-0.8-12.3c0,0,8.5-3.2,8.5,1.7
			C116.8,166.9,109,172.6,109,172.6z"/>
		<g>
			<path fill="#D1D3D4" d="M100.4,126.4l-0.7-11l1.5-0.9c1-0.6,6-3.4,9.6-3.4c0.3,0,0.5,0,0.8,0.1c0-0.3,0.1-0.6,0.1-0.9
				c0-2.9-2-4.8-5-4.8c-3.6,0-8.7,2.8-9.6,3.4l-1.5,0.9l1.2,19.8L100.4,126.4z"/>
			<path fill="#D1D3D4" d="M107.1,170l-0.7-11.3l1.9-0.7c0.3-0.1,3.3-1.2,6.1-1.2c0.8,0,1.4,0.1,2.1,0.3c0-0.1,0-0.2,0-0.3
				c0-2.6-1.7-5.6-6.2-5.6c-2.8,0-5.8,1.1-6.1,1.2l-1.9,0.7l1.2,19.5L107.1,170z"/>
			<path fill="#D1D3D4" d="M132,115.2l-6.8,5.6l8.8-0.6c0.3,0,0.9-0.1,1.5-0.2c0.5-0.1,1-0.1,1.6-0.2c5.1-5.3,13.4-20.3,10.3-30.2
				c-0.5-1.8-1.9-3.2-3.8-4.4C145.9,95.9,136.8,111.3,132,115.2z"/>
			<path fill="#D1D3D4" d="M90.2,114.4l-3.3,0.3c-5.1,0.5-10.3,3.3-14.6,6.4l-0.5,9.3c4.5-4,11.2-8.9,17.9-10L90.2,114.4z"/>
			<path fill="#D1D3D4" d="M160.4,132.6c-0.2-1.2-0.6-3.9-4.2-5.7c0,0,0,0.1,0,0.1c1.9,12.7-6.3,28.1-22.5,42
				c-15.4,13.3-33.8,21.4-44.3,25.4l-0.5,7.3c8.8-3,30.9-11.5,48.9-27.1C154.1,160.7,162.3,145.3,160.4,132.6z"/>
		</g>
		<polygon fill="#333132" points="761.9,86.8 691.1,90.2 687.7,127.1 711.8,120.6 698.9,175.8 724.4,175.9 736.7,114 761.9,107.2 		
			"/>
		<polygon fill="#FFFFFF" points="758.3,90.2 687.5,86.9 684.1,123.8 708.2,117.3 695.2,172.5 720.8,172.6 733.1,110.7 758.3,104 		
			"/>
		<g>
			<polygon fill="#D1D3D4" points="708.9,108.1 689,113.4 688.3,120.3 707.2,115.3 			"/>
			<polygon fill="#D1D3D4" points="752.4,90.3 752.3,96.5 727.6,103.1 715.4,164.4 701.2,164.4 699.9,170 719.5,170.1 731.7,108.7 
				756.5,102.1 756.5,90.3 			"/>
		</g>
		<path fill="#333132" d="M628.5,98.3l28.9-2.2c0,0-7.4,9.9-9.2,18.7c-1.4,6.7-0.4,12.1,5.9,12.8s10.5-6,13.2-11.8
			c4.6-10.1,1.5-20.9,1.5-20.9l34.5-3.3c0,0-10.9,78.3-56.5,77.5C613.1,169.1,619.8,124.9,628.5,98.3z"/>
		<path fill="#FFFFFF" d="M624.8,96.1l28.9-2.2c0,0-7.4,9.9-9.2,18.7c-1.4,6.7-0.4,12.1,5.9,12.8c6.2,0.7,10.5-6,13.2-11.8
			c4.6-10.1,4.3-17.4,4.3-17.4l28.9-1.5c0,0-8.1,73.1-53.7,72.3C609.5,166.8,616.2,122.6,624.8,96.1z"/>
		<g>
			<path fill="#D1D3D4" d="M638.6,106.6c-1.2,5.4-0.7,9.6,1.3,12.5c0.6,0.8,1.4,1.7,2.7,2.4c-0.7-2.5-0.7-5.6,0.1-9.2
				c1.1-5.3,4.1-10.9,6.5-14.8l-7.5,0.6C640.4,100.8,639.2,103.7,638.6,106.6z"/>
			<path fill="#D1D3D4" d="M689.2,98.3c-3.9,19-16.1,60.7-48.7,60.5l-0.6,0c-6.3,0-11.1-1.7-14.6-5c0.5,1.1,1.1,2.1,1.8,3
				c3.7,5.1,9.3,7.6,17,7.6l0.6,0c36.6,0.1,47.5-52.5,49.8-66.4L689.2,98.3z"/>
		</g>
		<path fill="#333132" d="M611.9,86.8c-15.7-0.1-32.2,14.6-36.9,32.8s4.1,33,19.8,33c15.7,0.1,32.2-14.6,36.9-32.8
			S627.6,86.9,611.9,86.8z M614,117.2c-1.2,4.4-4.4,8-7.2,8c-2.8,0-4.1-3.6-3-8c1.2-4.4,4.4-8,7.2-8
			C613.8,109.2,615.1,112.8,614,117.2z"/>
		<path fill="#FFFFFF" d="M609,84.2c-15.7-0.1-32.2,14.6-36.9,32.8c-4.7,18.2,4.1,33,19.8,33c15.7,0.1,32.2-14.6,36.9-32.8
			S624.6,84.2,609,84.2z M611,114.6c-1.2,4.4-4.4,8-7.2,8c-2.8,0-4.1-3.6-3-8c1.2-4.4,4.4-8,7.2-8
			C610.8,106.6,612.2,110.2,611,114.6z"/>
		<g>
			<path fill="#D1D3D4" d="M598.8,119.8c-0.3-1.7-0.2-3.6,0.3-5.6c1.5-5.8,5.8-10.1,9.9-10.1c0.7,0,1.3,0.1,1.9,0.3
				c-0.2-1.4-0.7-2.7-1.5-3.7c-1.1-1.5-2.8-2.3-4.6-2.3c-4.2,0-8.4,4.3-9.9,10.1c-1,3.7-0.5,7.1,1.1,9.3
				C596.9,118.8,597.8,119.5,598.8,119.8z"/>
			<path fill="#D1D3D4" d="M624,93.9c-0.6-0.8-1.3-1.5-2.1-2.2c2.5,5.3,3,12.2,1.1,19.5c-4.4,17-19.7,30.8-34.2,30.7
				c-4.7,0-8.7-1.5-11.9-4.4c0.6,1.2,1.3,2.4,2.1,3.4c3.3,4.3,8.1,6.6,13.9,6.6c14.4,0,29.7-13.7,34.2-30.7
				C629.4,107.9,628.3,99.5,624,93.9z"/>
		</g>
		<path fill="#333132" d="M586.8,134.5c-2-13.1-21.9-9.4-25.3-9.1c5.5-4.6,16-22.1,12.2-34.1c-3.8-12-30.2-12.4-50.5-0.1
			s-29.8,27-29.8,27l-1.1,21.8c0,0,11.9-13.5,22.6-14.4l-5.5,82.6c0,0,30.1-8.4,53.9-28.9C581.1,163.8,588.8,147.7,586.8,134.5z
			 M527,131.6l-0.8-12.3c0,0,10.3-6,10.4-1C536.7,123.2,527,131.6,527,131.6z M533.7,175.3l-0.8-12.3c0,0,8.5-3.2,8.5,1.7
			C541.5,169.6,533.7,175.3,533.7,175.3z"/>
		<path fill="#FFFFFF" d="M584.2,133.2c-2-13.1-21.9-9.4-25.3-9.1c5.5-4.6,16-22.1,12.2-34.1c-3.8-12-30.2-12.4-50.5-0.1
			s-29.8,27-29.8,27l-1.1,21.8c0,0,11.9-13.5,22.6-14.4l-5.5,82.6c0,0,30.1-8.4,53.9-28.9C578.5,162.5,586.2,146.4,584.2,133.2z
			 M524.4,130.3l-0.8-12.3c0,0,10.3-6,10.4-1C534.1,121.9,524.4,130.3,524.4,130.3z M531.1,174l-0.8-12.3c0,0,8.5-3.2,8.5,1.7
			C538.9,168.3,531.1,174,531.1,174z"/>
		<g>
			<path fill="#D1D3D4" d="M522.5,127.8l-0.7-11l1.5-0.9c1-0.6,6-3.4,9.6-3.4c0.3,0,0.5,0,0.8,0.1c0-0.3,0.1-0.6,0.1-0.9
				c0-2.9-2-4.8-5-4.8c-3.6,0-8.7,2.8-9.6,3.4l-1.5,0.9l1.2,19.8L522.5,127.8z"/>
			<path fill="#D1D3D4" d="M529.1,171.4l-0.7-11.3l1.9-0.7c0.3-0.1,3.3-1.2,6.1-1.2c0.8,0,1.4,0.1,2.1,0.3c0-0.1,0-0.2,0-0.3
				c0-2.6-1.7-5.6-6.2-5.6c-2.8,0-5.8,1.1-6.1,1.2l-1.9,0.7l1.2,19.5L529.1,171.4z"/>
			<path fill="#D1D3D4" d="M554,116.6l-6.8,5.6l8.8-0.6c0.3,0,0.9-0.1,1.5-0.2c0.5-0.1,1-0.1,1.6-0.2c5.1-5.3,13.4-20.3,10.3-30.2
				c-0.5-1.8-1.9-3.2-3.8-4.4C567.9,97.3,558.8,112.7,554,116.6z"/>
			<path fill="#D1D3D4" d="M512.3,115.8L509,116c-5.1,0.5-10.3,3.3-14.6,6.4l-0.5,9.3c4.5-4,11.2-8.9,17.9-10L512.3,115.8z"/>
			<path fill="#D1D3D4" d="M582.4,134c-0.2-1.2-0.6-3.9-4.2-5.7c0,0,0,0.1,0,0.1c1.9,12.7-6.3,28.1-22.5,42
				c-15.4,13.3-33.8,21.4-44.3,25.4l-0.5,7.3c8.8-3,30.9-11.5,48.9-27.1C576.1,162.1,584.4,146.7,582.4,134z"/>
		</g>
	</g>
</g>
<g id="Layer_4">
</g>
</svg>
