<?xml version="1.0" encoding="utf-8"?>
<!-- Generator: Adobe Illustrator 22.1.0, SVG Export Plug-In . SVG Version: 6.00 Build 0)  -->
<svg version="1.1" id="Layer_1" xmlns="http://www.w3.org/2000/svg" xmlns:xlink="http://www.w3.org/1999/xlink" x="0px" y="0px"
	 viewBox="0 0 441.3 40.9" style="enable-background:new 0 0 441.3 40.9;" xml:space="preserve">
<style type="text/css">
	.st0{fill:#0E9BFF;}
</style>
<g>
	<path class="st0" d="M9,0c13.3,0,20.8,7.9,20.8,19.4c0,6.6-3,12.5-7.6,15.7c-3.8,2.7-8.3,3.5-14.3,3.5l-8,0L0.1,0L9,0z M5.7,33.4
		l3.2,0c9.8,0,14.9-5.1,15-14c0-8.4-5.1-14.2-14.1-14.3l-3.9,0L5.7,33.4z"/>
	<path class="st0" d="M90.5,0.3l-0.1,5.2l-13-0.1l0,10.7l11.6,0l0,5.4l-11.6,0l-0.1,11.8l16.2,0.1l0,5.5l-22-0.1l0.1-38.6L90.5,0.3z
		"/>
	<path class="st0" d="M111.3,27.7l5.6-12.7l-6.5-14.6l5.9,0l3.5,8.6l3.5-8.5l5.3,0l-6.4,14.2l5.6,13.4l10.9-27.5l5.8,0l-16.7,40
		l-8.6-20.2l-8.6,20.2L94.5,0.3l6,0L111.3,27.7z"/>
	<path class="st0" d="M174.7,0.4c13.6,0,21.2,8,21.1,19.7c0,6.8-3.1,12.7-7.7,16c-3.9,2.7-8.5,3.5-14.5,3.5l-8.1,0l0.1-39.3
		L174.7,0.4z M171.4,34.4h3.2c9.9,0,15.2-5.1,15.2-14.3c0-8.6-5.2-14.5-14.4-14.5l-3.9,0L171.4,34.4z"/>
	<path class="st0" d="M272.9,26.9l0.1-26l5.6,0l-0.1,38.5c0,0,0,0.5-0.3,0.6c-0.4,0.1-0.7-0.2-0.7-0.2l-23.8-26l-0.1,25.9l-5.7,0
		L248,2c0,0-0.1-0.8,0.6-0.9c0.5-0.1,1,0.5,1,0.5L272.9,26.9z"/>
	<polygon class="st0" points="372.4,1.1 366.2,1.1 366.1,40.2 372.2,40.2 372.3,25.3 392.2,25.4 392.1,40.2 398.3,40.3 398.5,1.2 
		392.3,1.2 392.2,19.7 372.3,19.6 	"/>
	<polygon class="st0" points="434.2,1.3 422.6,19.3 411.3,1.2 404,1.2 419.4,24.9 419.4,40.4 425.6,40.4 425.7,24.8 425.7,24.6 
		441.3,1.3 	"/>
	<path class="st0" d="M314,40l6.6,0L303.7,0.9c0,0-0.4-1-1.1-1c-0.7,0-1.1,1-1.1,1l-16.7,39l6.1,0l4.6-11.3l14,0L314,40z
		 M297.8,22.9l2.7-6.5c1-2.4,2-6,2-6s1,3.6,2,6l2.6,6.5L297.8,22.9z"/>
	<g>
		<path class="st0" d="M47,22.7c0.7,0.4,1.6,1.1,2.5,2c0.9,0.9,2,2.2,3.1,3.7l3.5,5.8l1.1,1.5c0.2,0.2,0.3,0.4,0.3,0.5l1.7,2.6
			l6.9,0l-2.2-3c-0.8-1.1-1.9-2.7-3.2-4.9c-2.1-3.4-3.7-5.9-4.9-7.3c-1-1.2-2-2.2-3.1-3l-0.2-0.2l0.3-0.1c1.8-0.8,3.3-2,4.3-3.4
			c1.1-1.6,1.7-3.6,1.7-5.8c0-3.3-1.1-6-3.4-7.9C53,1.3,49.9,0.3,46,0.3l-9.7,0l-0.1,38.5l5.8,0L42,22.1h1.3
			C45,22.2,46.3,22.4,47,22.7z M42.1,5.2h1.5c2.6,0,4.6,0.2,5.7,0.6c1.1,0.4,2,1.1,2.6,2c0.6,0.9,0.9,2,0.9,3.2
			c0,1.2-0.3,2.2-0.8,3.2c-0.6,0.9-1.3,1.6-2.3,2.1c-1,0.5-2.9,0.7-5.6,0.7l-1.9,0L42.1,5.2z"/>
	</g>
	<path class="st0" d="M342.2,23.8l10,0l0,8.1l-0.2,0.2c-2.6,1.9-6.2,3-9.8,3c-8.1,0-13.8-6-13.8-14.5c0-8,6-14.4,13.3-14.4
		c4.9,0,8,1.6,10.9,4l3.7-4.4c-4.2-3.5-8.4-4.9-14.3-4.9c-11-0.1-19.7,8.6-19.7,19.7c-0.1,11.6,8.1,19.7,19.7,19.8
		c7.3,0,12.6-3.1,15.8-5.8l0.1-15.7l-15.6-0.1L342.2,23.8z"/>
	<path class="st0" d="M221.8,0.7c-11.4,0-20,8.4-20,19.6c0,11.3,8.5,19.7,19.8,19.7c11.4,0,20-8.4,20-19.6
		C241.6,9.2,233.1,0.7,221.8,0.7z M221.6,34.8c-7.7,0-13.8-6.4-13.7-14.5c0-8.3,5.9-14.4,13.7-14.3c7.7,0,13.8,6.4,13.7,14.5
		C235.3,28.7,229.4,34.8,221.6,34.8z"/>
</g>
</svg>
