<?xml version="1.0" encoding="utf-8"?>
<!-- Generator: Adobe Illustrator 21.1.0, SVG Export Plug-In . SVG Version: 6.00 Build 0)  -->
<svg version="1.1" xmlns="http://www.w3.org/2000/svg" xmlns:xlink="http://www.w3.org/1999/xlink" x="0px" y="0px"
	 viewBox="0 0 354.3 183.9" style="enable-background:new 0 0 354.3 183.9;" xml:space="preserve">
<style type="text/css">
	.st0{fill:#91CFF1;}
	.st1{fill:#003764;}
	.st2{fill:#91CFF1;stroke:#91CFF1;stroke-width:2;stroke-miterlimit:10;}
	.st3{fill:none;}
	.st4{fill:#FFFFFF;}
	.st5{fill:#EB0029;}
</style>
<g id="jersey_color">
</g>
<g id="artwork">
	<rect x="-4.3" y="-6" class="st0" width="182.2" height="199"/>
	<rect x="177.3" y="-6" class="st1" width="181.2" height="199"/>
	<path class="st2" d="M338.1,56.6c1.2-3.3,2.6-8.3,2.3-12.9c-0.1-1.9-0.5-3.7-1.2-5.2c-2-4.6-6.2-9.9-11-14.1
		c-3.3-2.9-9.8-7.7-16.2-7.8c-0.1,0-0.2,0-0.3,0c-7.5,0-12.4,3.7-16.8,7c-1.1,0.8-2.4,1.8-3.6,2.6c0,0-0.1,0-0.1,0.1l-4-14.5h-39.4
		l-3.6,14.8c-0.2-0.1-0.3-0.2-0.5-0.3c-1.2-0.8-2.4-1.7-3.6-2.6c-4.3-3.3-9.2-7-16.8-7c-0.1,0-0.2,0-0.3,0c-6.5,0.1-13,4.9-16.2,7.8
		c-4.9,4.3-9,9.5-11,14.1c-0.5,1.2-0.9,2.6-1,4.1c-0.4,3.8,0.6,8.5,2.8,13.9c0.4,1,0.9,2.1,1.4,3.2c1.2,2.5,2.5,4.9,4.1,7.3l0,2
		c-0.1,9-0.1,24.8-0.1,32.7c-0.7,0.4-1.4,1-2,1.6c-1.5,1.7-2.4,3.8-2.4,6.1V135c0,2.6,1.1,5.1,3.1,6.8c1.6,1.4,3.8,2.2,5.9,2.2
		c0.4,0,0.8,0,1.2-0.1c1.6-0.2,3.2-0.4,4.8-0.6c0.8-0.1,1.5-0.3,2.2-0.6c0.2,0,0.5,0.1,0.7,0.1c3.7,4.7,8,9.1,12.9,13.1
		c8.2,6.7,16.1,10.8,21.3,13.1c6.9,3,13.4,4.7,18.1,4.7c8.8,0,24.6-5.5,38.6-17.5c4.5-3.9,8.5-8.2,11.9-12.8l0.7,0.1
		c0.9,0.2,1.7,0.2,2.7,0.1c0.3,0.1,0.6,0.1,0.9,0.2l3.1,0.5c2.6,0.4,5.3-0.4,7.3-2.1c2-1.7,3.2-4.2,3.2-6.9v-22.1
		c0-1.1,0-3.7-1.4-6.4c-0.2-0.4-0.5-0.9-0.7-1.3c0.3-1.9,0.2-3.7-0.4-5.4c-0.5-1.5-1.3-2.8-2.5-3.8c0-2.6,0-10.9-0.1-18.8l0-8.9
		c1.7-2.6,3.5-5.9,4.9-9.1C337.4,58.6,337.8,57.6,338.1,56.6z M207.8,73.6L207.8,73.6c0,0.2,0,0.4,0,0.5
		C207.8,74,207.8,73.8,207.8,73.6z"/>
	<g>
		<g>
			<g>
				<g>
					<path class="st3" d="M129.5,136c-3,3.9-6.2,7.2-9.2,9.8c-3.3,2.8-7.3,5.6-11.5,8c-6.3,3.6-13.1,6.2-18.5,6.2
						c-4.2,0-11.4-2.4-19-6.6c-4-2.2-8-4.9-11.9-8c-3.1-2.5-6.4-5.6-9.5-9.3c-0.5,0-0.9,0-1.3,0c-1,0-1.8-0.3-2.6-0.7
						c-0.1,0.1-0.1,0.2-0.2,0.2c3.7,4.9,8,9,11.9,12.2c11.7,9.6,25.7,15.3,32.5,15.3c9.4,0,22.9-7.5,31.5-14.9
						c3.6-3.1,7.4-7,10.8-11.7c-0.1,0-0.2,0-0.3,0L129.5,136z"/>
					<path class="st3" d="M138.3,61.4c-1.2-3.5-2.7-6.5-4.4-9l-18.7,6c0.1,1.1,0.2,2.1,0.2,3.1c0,1,0,2-0.1,3L138.3,61.4z"/>
					<path class="st3" d="M142.4,100c0.2,0,0.3,0,0.5,0v-0.6c0-0.3,0-0.6,0-0.9c0-2.8,0-5.5-0.1-8l-30.7-13.4
						c-0.7,1.6-1.5,3-2.4,4.5c0,0.1,0,0.2,0,0.2l26.9,19.4c0.1-0.1,0.1-0.2,0.2-0.2c0.6-0.6,1.4-0.9,2.3-0.9H142.4z"/>
					<path class="st3" d="M47,52.7c-0.3,0.4-0.6,0.8-0.8,1.2c-1.6,2.4-3.1,5-4.3,7.9l20.9,2.8c-0.1-1-0.1-2-0.1-3.1
						c0-1.1,0.1-2.2,0.3-3.4L47,52.7z"/>
					<path class="st3" d="M35.3,103.1v2.1L68,81.6v0c-0.1-0.4-0.2-0.8-0.4-1.1l-0.5-0.9l0,0l0,0l-0.4-0.7c-0.3-0.6-0.7-1.3-1-1.9
						l-30,13.1C35.5,94,35.3,98.3,35.3,103.1z"/>
					<path class="st3" d="M113.5,73.5l28.6,6.2c-0.4-4.1-1-7.8-1.7-11.1l-25.5-0.2C114.5,70.2,114,71.9,113.5,73.5z"/>
					<path class="st3" d="M36.8,79.4l27.5-6c-0.5-1.6-0.9-3.2-1.2-4.9l-24,0.4C38.2,72,37.4,75.5,36.8,79.4z"/>
					<path class="st3" d="M43.5,133.5c0-4.9,0-9.8,0-14.6c0-0.3,0-0.7,0-1c0,0,0,0,0,0C43.5,122.8,43.5,128.7,43.5,133.5z"/>
					<path class="st3" d="M150.9,62.2c0.1-0.8,0.1-1.6,0.2-2.5v0c0-0.8,0.1-1.7,0.1-2.5l0-0.6c0-0.1,0-0.2,0-0.3v-0.3
						c0-0.5,0-0.9,0-1.4c-0.1-0.9-0.2-1.9-0.3-2.8c-0.2-0.9-0.4-1.9-0.7-2.8c-0.2-0.5-0.4-1-0.6-1.5c-0.6-1.3-1.3-2.6-2.2-3.7
						c-1.2-1.5-2.6-2.8-4-3.8c-1.5-1-3-1.8-4.5-2.4c-1.5-0.6-2.9-1-4.3-1.3c-1.3-0.3-2.6-0.5-3.7-0.6c-1.1-0.1-2.1-0.1-2.9-0.1
						c-0.5,0-0.9,0-1.2,0h0c-0.2,0-0.4,0-0.6,0c-0.4,0-0.6,0.1-0.6,0.1s0.9,0.1,2.4,0.5c0.8,0.2,1.7,0.4,2.7,0.7
						c0.1,0,0.2,0.1,0.4,0.1c0,0,0,0,0,0c0.9,0.3,1.9,0.6,3,1c0.7,0.3,1.3,0.5,2,0.9c0,0,0,0,0,0c0.6,0.3,1.2,0.6,1.8,0.9
						c1.3,0.7,2.6,1.5,3.7,2.5c0.4,0.4,0.9,0.8,1.3,1.2c0.6,0.6,1.1,1.2,1.6,1.9c0.1,0.1,0.2,0.2,0.3,0.4c0.6,0.9,1.1,1.8,1.5,2.8
						c0.2,0.5,0.4,1,0.6,1.5c0.1,0.4,0.2,0.8,0.3,1.1c0,0.2,0.1,0.4,0.1,0.6c0,0.1,0,0.1,0,0.2c0,0.1,0.1,0.3,0.1,0.4v0
						c0,0.1,0,0.1,0,0.2c0,0,0,0,0,0.1c0,0.1,0.1,0.3,0.1,0.4c0.1,0.4,0.1,0.8,0.2,1.2c0,0.1,0,0.1,0,0.2c0,0.1,0,0.3,0,0.4
						c0,0.1,0,0.2,0,0.3c0,0.3,0,0.6,0,1l0,0.3c0,0.1,0,0.2,0,0.3l0,0.6c0,0.3,0,0.5,0,0.8c0,0.5,0,0.9,0,1.3c0,0.1,0,0.3,0,0.4
						c0,0.2,0,0.3,0,0.5c0,1.5,0,2.9,0.1,4.3c0,1.4,0.1,2.7,0.1,3.9l0.7-0.8l2-2.5c0-0.2,0-0.3,0.1-0.5
						C150.7,63.8,150.8,63,150.9,62.2z"/>
					<path class="st3" d="M48,36.8c1-0.3,1.9-0.5,2.7-0.7c1.5-0.3,2.4-0.5,2.4-0.5s-0.2,0-0.6-0.1c-0.4,0-0.9-0.1-1.5-0.1h0
						c-0.1,0-0.2,0-0.3,0c-0.8,0-1.7,0-2.8,0.1c-1.1,0.1-2.3,0.3-3.7,0.6c-1.3,0.3-2.8,0.7-4.2,1.3c-1.5,0.6-3,1.4-4.4,2.5
						c-1.4,1.1-2.8,2.4-3.9,3.9c-0.7,0.9-1.3,1.9-1.7,2.9c-0.3,0.7-0.6,1.5-0.9,2.2c-0.6,1.8-0.9,3.7-1,5.6c-0.1,0.9,0,1.9,0,2.7
						c0,0.9,0.1,1.7,0.1,2.5c0,0,0,0.1,0,0.1c0,0.8,0.1,1.6,0.1,2.4c0,0.7,0.1,1.4,0.1,2.1c0,0,0,0,0,0l2.7,3.3v0
						c0.1-1,0.1-2,0.1-3.1c0-0.5,0-0.9,0.1-1.4c0-0.5,0-1.1,0.1-1.6c0,0,0-0.1,0-0.1c0-0.3,0-0.6,0-0.9c0,0,0-0.1,0-0.1
						c0-0.2,0-0.4,0-0.5c0.1-1.6,0-3.4,0.1-5c0.1-0.8,0.1-1.6,0.3-2.4c0.1-0.8,0.3-1.6,0.6-2.3c0,0,0-0.1,0-0.1c0,0,0,0,0,0
						c0.2-0.7,0.5-1.4,0.8-2c0.3-0.7,0.7-1.5,1.2-2.1c0.1-0.2,0.2-0.4,0.4-0.5c0.6-0.9,1.3-1.6,2.1-2.4h0c0.2-0.2,0.4-0.4,0.6-0.6
						c1.2-1,2.4-1.9,3.7-2.6c0.2-0.1,0.3-0.2,0.5-0.3c0,0,0,0,0,0c0.6-0.3,1.3-0.7,1.9-1h0c0.4-0.2,0.9-0.4,1.3-0.6
						C45.8,37.5,46.9,37.1,48,36.8z"/>
					<path class="st3" d="M89.3,46.4c-6.5,0-10.4,1.4-12.4,4.6C75,53.9,75,57.7,75,62c0,0.1,0,0.2,0,0.2c0,1.4,0.1,2.7,0.4,4
						c0.1,0.7,0.3,1.4,0.5,2.1c0.3,0.8,0.6,1.6,0.9,2.4c0.2,0.4,0.4,0.8,0.6,1.1c0.4,0.7,0.8,1.4,1.3,2.1c3.1,4.3,7.6,6.4,10.6,6.4
						c2.5,0,5.9-1.9,8.5-4.7c0.4-0.4,0.8-0.9,1.2-1.5c0.5-0.6,1-1.3,1.4-2.1c0.2-0.4,0.4-0.8,0.6-1.2c0.4-0.8,0.7-1.6,1-2.5
						c0.2-0.7,0.4-1.4,0.5-2.1c0.2-1.2,0.4-2.5,0.4-3.9c0-0.1,0-0.2,0-0.3c0-0.4,0-0.8,0-1.2c0-4.6,0-8.6-2.7-11.3
						C98.1,47.4,94.6,46.4,89.3,46.4z M100.9,62c0,0.3,0,0.6,0,0.9c0,0.3,0,0.5,0,0.8c0,0,0,0.1,0,0.1c0,0.2,0,0.4-0.1,0.5
						c0,0.1,0,0.3-0.1,0.4c0,0.1,0,0.3-0.1,0.4c0,0.1,0,0.3-0.1,0.4c0,0.2-0.1,0.3-0.1,0.5c0,0,0,0,0,0c0,0.1,0,0.2-0.1,0.3
						c0,0.2-0.1,0.3-0.1,0.5c0,0.1-0.1,0.3-0.1,0.4c0,0.1-0.1,0.3-0.1,0.4c0,0,0,0,0,0c-0.1,0.2-0.1,0.3-0.2,0.5
						c-0.1,0.2-0.1,0.4-0.2,0.5c0,0,0,0,0,0c-0.1,0.2-0.1,0.4-0.2,0.5c-0.1,0.2-0.2,0.3-0.2,0.5c-0.1,0.2-0.2,0.3-0.2,0.5
						c-0.1,0.3-0.3,0.6-0.4,0.8c0,0-0.1,0.1-0.1,0.1c-0.1,0.1-0.1,0.2-0.2,0.3c-0.1,0.1-0.1,0.2-0.2,0.3c-0.1,0.1-0.1,0.2-0.2,0.3
						c0,0,0,0,0,0c-0.1,0.2-0.3,0.4-0.4,0.6c0,0,0,0,0,0c0,0,0,0.1-0.1,0.1c-0.1,0.1-0.1,0.1-0.2,0.2c-0.1,0.1-0.1,0.2-0.2,0.3
						c-0.2,0.3-0.5,0.6-0.7,0.8c-0.1,0.1-0.3,0.3-0.4,0.4c0,0,0,0-0.1,0.1c-0.1,0.1-0.3,0.3-0.4,0.4c-0.1,0-0.1,0.1-0.2,0.1
						c-0.1,0.1-0.2,0.2-0.4,0.3c-0.2,0.1-0.3,0.3-0.5,0.4c-0.1,0.1-0.3,0.2-0.4,0.3c-0.1,0.1-0.1,0.1-0.2,0.2
						c-0.1,0-0.1,0.1-0.2,0.1c-0.1,0.1-0.2,0.1-0.3,0.2c-0.1,0.1-0.2,0.1-0.3,0.2c-0.1,0.1-0.2,0.1-0.3,0.2c-0.7,0.4-1.4,0.7-2,0.9
						c0,0-0.1,0-0.1,0c-0.1,0-0.2,0.1-0.3,0.1c0,0,0,0-0.1,0c-0.1,0-0.2,0-0.3,0.1c-0.1,0-0.2,0-0.3,0c0,0,0,0,0,0
						c-0.1,0-0.2,0-0.3,0c-0.1,0-0.3,0-0.4,0c-0.1,0-0.3,0-0.4,0c-0.1,0-0.3,0-0.4-0.1c-0.1,0-0.1,0-0.2,0c-0.1,0-0.1,0-0.2,0
						c0,0,0,0,0,0c0,0-0.1,0-0.1,0c0,0,0,0-0.1,0c0,0,0,0,0,0c0,0,0,0,0,0c0,0,0,0,0,0c0,0-0.1,0-0.1,0h0c0,0,0,0-0.1,0
						c0,0,0,0-0.1,0c0,0-0.1,0-0.1,0c0,0,0,0,0,0c-0.1,0-0.2-0.1-0.4-0.1c-0.2-0.1-0.3-0.1-0.5-0.2c0,0,0,0,0,0
						c-0.2-0.1-0.3-0.1-0.5-0.2c-0.2-0.1-0.3-0.2-0.5-0.3c-0.2-0.1-0.3-0.2-0.5-0.3c0,0-0.1,0-0.1-0.1c0,0-0.1,0-0.1-0.1
						c0,0,0,0,0,0c0,0,0,0,0,0c-0.1-0.1-0.3-0.2-0.4-0.3c-0.1-0.1-0.2-0.2-0.4-0.3c-0.1-0.1-0.2-0.2-0.3-0.3c0,0,0,0,0,0
						c-0.1-0.1-0.1-0.1-0.2-0.2c0,0,0,0,0,0c-0.1-0.1-0.3-0.2-0.4-0.3c0,0,0,0-0.1-0.1c-0.2-0.1-0.3-0.3-0.5-0.4
						c-0.1-0.1-0.3-0.3-0.4-0.4c-0.2-0.2-0.3-0.3-0.5-0.5c0,0-0.1-0.1-0.1-0.1c-0.1-0.1-0.2-0.3-0.3-0.4c-0.1-0.1-0.2-0.2-0.2-0.3
						c-0.1-0.1-0.2-0.2-0.2-0.3c-0.1-0.1-0.2-0.3-0.3-0.4c0,0,0,0,0,0c-0.1-0.1-0.2-0.3-0.3-0.4c-0.1-0.1-0.2-0.3-0.3-0.4
						c-0.1-0.1-0.2-0.3-0.3-0.5c0,0,0,0,0,0c-0.1-0.2-0.2-0.5-0.4-0.7c0,0,0,0,0,0c-0.1-0.2-0.2-0.4-0.3-0.5
						c-0.1-0.1-0.1-0.3-0.2-0.4c-0.1-0.2-0.1-0.3-0.2-0.5c-0.1-0.2-0.1-0.3-0.2-0.5c0,0,0-0.1,0-0.1c0,0,0,0,0,0
						c0-0.1-0.1-0.2-0.1-0.3c0-0.1-0.1-0.2-0.1-0.3c0-0.1-0.1-0.2-0.1-0.3c0-0.1-0.1-0.2-0.1-0.3c0-0.1-0.1-0.2-0.1-0.3
						c0,0,0,0,0-0.1c0-0.1,0-0.2-0.1-0.3c0-0.1-0.1-0.2-0.1-0.3c0,0,0,0,0,0c0-0.1,0-0.2-0.1-0.3c0-0.1-0.1-0.3-0.1-0.5
						c0-0.1,0-0.3-0.1-0.4c0,0,0-0.1,0-0.1c0-0.1,0-0.3-0.1-0.4c0,0,0,0,0,0c0-0.1,0-0.2,0-0.4c0-0.1,0-0.3,0-0.4c0,0,0-0.1,0-0.1
						c0-0.1,0-0.2,0-0.2c0-0.2,0-0.3,0-0.5c0-0.3,0-0.6,0-0.9c0-8.3,0-13.6,12.3-13.6C101.6,48.4,100.9,53.8,100.9,62z"/>
				</g>
				<g>
					<path class="st4" d="M156.7,40.3c-3.5-8-15.1-19.2-23.2-19.3h-0.2c-7.8,0-12,4.9-17.9,8.9c-1.7,1.2-3.4,2.3-5,3.2
						c-0.3,0.1-0.5,0.3-0.7,0.4h0c-2.1,1.2-4,2.1-5.4,2.4c-0.4,0.1-0.7,0.1-1,0.1c-0.1,0-0.2,0-0.3,0c-0.3,0-0.5-0.2-0.7-0.3
						c-0.1-0.1-0.2-0.3-0.3-0.4c-0.2-0.7-0.3-1.5-0.3-2.1v-8c0-1.9-1.5-3.4-3.4-3.4H80.4c-1.9,0-3.4,1.5-3.4,3.4v7.5
						c0,0.1,0,0.2,0,0.3c0,0.2,0,0.3,0,0.5l0-0.4c0,0-0.1,2.8-1.6,2.9c-0.1,0-0.2,0-0.2,0c-1.4,0-3.5-1-6.1-2.4h0
						c-0.1-0.1-0.3-0.2-0.4-0.2c-1.8-1-3.7-2.3-5.7-3.6c-5.9-4-10.1-8.9-17.9-8.9h-0.2C36.5,21.1,25,32.3,21.5,40.3
						c-0.4,1-0.7,2.2-0.7,3.4c-0.2,4.6,2,10.7,4.7,15.9c0.9,1.7,1.7,3.3,2.6,4.7l0,0l0.1,0.1c0,0,0,0,0,0c-0.1-0.7-0.1-1.4-0.1-2.1
						c0-0.8-0.1-1.6-0.1-2.4c0,0,0-0.1,0-0.1c0-0.8-0.1-1.7-0.1-2.5c0-0.8-0.1-1.8,0-2.7c0.1-1.9,0.4-3.8,1-5.6
						c0.2-0.8,0.5-1.5,0.9-2.2c0.5-1,1.1-2,1.7-2.9c1.1-1.5,2.5-2.8,3.9-3.9c1.4-1.1,3-1.9,4.4-2.5c1.5-0.6,2.9-1,4.2-1.3
						c1.3-0.3,2.6-0.5,3.7-0.6c1.1-0.1,2.1-0.1,2.8-0.1c0.1,0,0.2,0,0.3,0h0c0.6,0,1.1,0.1,1.5,0.1c0.4,0,0.6,0.1,0.6,0.1
						s-0.9,0.1-2.4,0.5c-0.7,0.2-1.7,0.4-2.7,0.7c-1,0.3-2.1,0.7-3.3,1.2c-0.4,0.2-0.9,0.4-1.3,0.6c0.6-0.1,1.2-0.2,1.7-0.2
						c0.8,0,1.6,0.1,2.3,0.4c0.5,0.2,1,0.4,1.5,0.6c2.2,0.8,5.1,2,7.9,3.4c5,2.7,9.7,6.4,9.7,11.5c0,0.3,0,0.5,0,0.8
						c-0.4,1.3-0.7,2.7-0.8,4c0,0,0,0,0,0c-0.1,0.8-0.2,1.6-0.2,2.4c0,1.2,0,2.3,0.1,3.5c0.1,1.2,0.2,2.4,0.5,3.6
						c0.3,1.5,0.6,2.9,1.1,4.3c0.3,1,0.7,2,1.2,3c0.3,0.6,0.6,1.1,0.9,1.7l0.4,0.7l0.5,0.9c0.1,0.2,0.2,0.5,0.3,0.7
						c0.6,1.5,1,3.7-0.8,5.4c-3,2.7-7.3,7.5-4.1,17.3c0.4,1.1,1.3,1.7,2.2,1.7c1.1,0,2.2-0.9,2.2-3c0-2.7,1.1-7.3,5.8-10.1
						c1.9-1.1,3.1-1.5,4.2-1.5c1.1,0,2.2,0.3,3.6,0.6v0c1.1,0.3,3.5,0.8,5.4,0.8c2.1,0,4.9-0.6,6.1-1c1-0.2,1.8-0.4,2.6-0.4
						c1.2,0,2.4,0.4,4.3,1.5c4.6,2.8,5.8,7.5,5.8,10.1c0,2.1,1.1,3,2.2,3c0.9,0,1.8-0.6,2.2-1.7c3.1-9.7-1.1-14.6-4.1-17.3
						c-1.6-1.4-1.5-3.4-1-4.8c0.1-0.1,0.1-0.2,0.2-0.3c0.8-1.3,1.6-2.6,2.2-4.1c0.4-1,0.8-2,1.2-3.1c0.5-1.5,0.9-3,1.2-4.5
						c0.2-1.1,0.4-2.3,0.5-3.5c0.1-1.1,0.2-2.2,0.2-3.4c0-0.7,0-1.5-0.1-2.2c-0.1-1.2-0.2-2.4-0.4-3.6c0-0.2-0.1-0.4-0.2-0.6
						c-0.6-6.1,5.5-10.4,11.4-13.2c2.6-1.3,5.3-2.2,7.2-3c0.2-0.1,0.4-0.1,0.5-0.2c0.7-0.3,1.5-0.4,2.3-0.4c0.2,0,0.5,0,0.7,0
						c0.7,0.1,1.4,0.2,2,0.4c-0.7-0.3-1.3-0.6-2-0.9c-1.1-0.4-2.1-0.7-3-1c0,0,0,0,0,0c-0.1,0-0.2-0.1-0.4-0.1
						c-1-0.3-1.9-0.5-2.7-0.7c-1.5-0.3-2.4-0.5-2.4-0.5s0.2,0,0.6-0.1c0.2,0,0.4,0,0.6,0h0c0.3,0,0.8,0,1.2,0c0.8,0,1.8,0,2.9,0.1
						c1.1,0.1,2.3,0.3,3.7,0.6c1.3,0.3,2.8,0.7,4.3,1.3c1.5,0.6,3,1.4,4.5,2.4c1.5,1,2.9,2.3,4,3.8c0.9,1.1,1.6,2.4,2.2,3.7
						c0.2,0.5,0.4,1,0.6,1.5c0.3,0.9,0.6,1.9,0.7,2.8c0.2,0.9,0.3,1.9,0.3,2.8c0,0.5,0.1,0.9,0,1.4v0.3c0,0.2,0,0.2,0,0.3l0,0.6
						c0,0.9-0.1,1.7-0.1,2.5v0c0,0.8-0.1,1.7-0.2,2.5c-0.1,0.8-0.1,1.6-0.2,2.4c0,0.2,0,0.3-0.1,0.5l0,0l0,0c1-1.6,2.1-3.6,3-5.6
						c2.2-4.7,4-10.1,3.9-14.6C157.6,43.1,157.3,41.6,156.7,40.3z M102.5,63c0,7.4-6.3,16.9-13.4,17c0,0,0,0,0,0
						c-2.6,0-5.6-1.5-8.1-4c-3.5-3.5-5.5-8.2-5.5-12.9v-6.4c0-5.5,4.8-9.8,10.9-9.8h5.8c5.9,0,10.4,4.1,10.4,9.6V63z"/>
					<polygon class="st4" points="85.4,146.6 83.9,146.6 83.9,145.4 88.9,145.4 88.9,144.1 83.9,144.1 83.9,142.5 88.1,142.5 
						88.1,143.4 89.8,143.4 89.8,141.3 80.8,141.3 80.8,142.5 81.9,142.5 81.9,146.6 80.8,146.6 80.8,147.9 85.4,147.9 					"/>
					<polygon class="st4" points="92.8,147.9 99.4,147.9 100.7,146.6 100.7,146.5 100.7,145.4 98.7,145.4 98.7,146 98.1,146.6 
						94,146.6 93.8,146.4 93.4,145.9 93.4,143.3 94,142.6 98.1,142.6 98.7,143.2 98.7,143.7 100.7,143.7 100.7,142.7 99.4,141.3 
						92.8,141.3 91.4,142.7 91.4,146.5 91.4,146.5 					"/>
					<path class="st4" d="M71.5,141.8L59.1,143c0,0,3.8,3.9,5.5,4.5l9.4,1c4,2.8,10.8,5.5,16.4,5.5c6,0,12.4-2.8,16.2-5.5l9.1-1.1
						c1.7-0.6,5.5-4.5,5.5-4.5l-11.8-1.2c-2.4-3.4-10.7-5.5-19.1-5.5C82,136.3,74.2,138.6,71.5,141.8z M90.3,137.7
						c9.1,0,18,3,16.5,7.3c-0.9,2.6-9,7.7-16.5,7.7c-6.7,0-15.7-4.7-16.5-7.7C72.7,141.1,81.2,137.7,90.3,137.7z"/>
					<path class="st4" d="M72.2,15.2h34l3.7,13.6c0.6-0.4,1.2-0.7,1.8-1.1l-3.6-13l-0.4-1.5H70.6l-0.4,1.6l-3.2,13
						c0.6,0.4,1.2,0.7,1.8,1.1L72.2,15.2z"/>
					<path class="st4" d="M155,105.9c0.4-1.8,0.3-3.6-0.2-5.3c-0.5-1.4-1.4-2.7-2.5-3.6c0-1.4-0.1-16-0.1-26.2l-1.7,2.4
						c0,10.3,0.1,23.1,0.1,24.7c1.2,0.7,2.2,1.8,2.6,3.2c0.6,1.6,0.5,3.5,0,5.2c0.6,0.7,1.1,1.4,1.3,1.9c1,2,1,4,1,5v22.1
						c0,1.7-0.7,3.3-2,4.4c-1.1,0.9-2.4,1.4-3.8,1.4c-0.3,0-0.6,0-0.9-0.1l-3.1-0.5c-0.4-0.1-0.7-0.2-1.1-0.3
						c-0.4,0.1-0.8,0.1-1.3,0.1c-0.4,0-0.8,0-1.1-0.1c-0.8-0.2-1.8-0.4-2.7-0.5c-3.5,5-7.7,9.7-12.6,13.9
						c-13.4,11.5-28.3,16.8-36.5,16.8c-4.3,0-10.3-1.6-16.8-4.4c-5-2.2-12.6-6.2-20.5-12.6c-5.2-4.3-9.7-8.9-13.4-13.9
						c-0.1,0-0.2,0-0.3,0c-0.2,0-0.4,0-0.7,0c-0.6,0-1.1-0.1-1.7-0.2c-0.7,0.4-1.4,0.7-2.2,0.8c-1.6,0.2-3.2,0.4-4.8,0.6
						c-0.3,0-0.5,0.1-0.8,0.1c-1.4,0-2.8-0.5-3.8-1.4c-1.3-1.1-2-2.7-2-4.4v-25.5c0-1.5,0.5-2.9,1.5-3.9c0.8-0.8,1.7-1.4,2.8-1.7v-1
						c0-6.5,0-21.3,0.1-31v0l-1.7-2.7C26,78.5,26,95.5,26,102.7c-0.9,0.4-1.7,1-2.4,1.7c-1.3,1.4-2,3.2-2,5.1V135
						c0,2.2,0.9,4.2,2.6,5.7c1.4,1.2,3.1,1.9,5,1.9c0.3,0,0.7,0,1-0.1c1.6-0.2,3.2-0.4,4.8-0.6c0.8-0.1,1.5-0.3,2.2-0.6
						c0.5,0.1,1,0.1,1.5,0.1c0.1,0,0.1,0,0.2,0c3.7,4.8,8.1,9.3,13.2,13.5c8,6.6,15.8,10.6,20.9,12.9c6.7,3,12.9,4.6,17.5,4.6
						c8.5,0,23.9-5.4,37.6-17.2c4.7-4.1,8.8-8.5,12.2-13.3c0.5,0.1,1.1,0.2,1.6,0.3c0.5,0.1,1,0.1,1.5,0.1c0.4,0,0.7,0,1.1-0.1
						c0.3,0.1,0.6,0.2,1,0.2l3.1,0.5c0.4,0.1,0.8,0.1,1.2,0.1c1.8,0,3.5-0.6,4.9-1.8c1.7-1.4,2.6-3.5,2.6-5.7v-22.1
						c0-1,0-3.3-1.2-5.8C155.7,106.9,155.4,106.4,155,105.9z"/>
					<path class="st4" d="M139,107c0,0,0.1,0,0.2,0c0.4,0,1.5-0.1,2.3-1c1.3-1.3,0.8-2.8,0.8-2.8c-1.1,0-2.3,0-3.4,0
						C139,104.5,139,105.7,139,107z"/>
					<path class="st4" d="M53.6,118.9c-1.8,0.5-4.8,1.4-4.8,1.4s-1.5,0.2-1.5,1.9c0,1.7,0,9,0,9s0,1.6,1.5,1.6c1.5,0,4.2-0.1,5-0.2
						c1.2-0.1,1.9-1.7,2.3-2.7c0.1-0.2,0.2-0.1,0.2,0l0.5,2.4l3.5-0.3c0,0,0-9.7,0-17.8c0-2.6-0.8-4.5-5-4.5c-3.2,0-2.1,0-3.3,0
						c-2.3,0-4.6,0.8-4.6,4.1c0,2.2,0,3.7,0,3.7l4.2-1.3v-1.6c0,0-0.3-0.9,1-0.9c1.3,0,2,0,2,0s0.7,0.1,0.7,0.9c0,0.8,0,2.6,0,2.6
						S55.4,118.3,53.6,118.9z M55.2,121.2v5.1c0,0-1.4,2.3-3.1,2.3c-0.5,0-0.8-0.3-0.8-1c0-1,0-3.7,0-3.7s-0.1-1,1.4-1.4
						C53.6,122.1,55.2,121.7,55.2,121.2z"/>
					<path class="st4" d="M144.5,107.1c0.4,0,1.5-0.1,2.3-1c1.3-1.4,0.8-2.8,0.8-2.8c-1.1,0-2.3,0-3.4,0c0,1.3,0,2.5,0,3.8
						c0,0,0,0,0,0C144.2,107.1,144.3,107.1,144.5,107.1z"/>
					<path class="st4" d="M141.1,109.6c-1.3,0-4.2,0-4.2,3.2c0,2.1,0,4.8,0,4.8l4.1-1.2l0-2.4c0,0-0.1-1.1,1-1.1c1.1,0,2.2,0,2.2,0
						s0.6,0.1,0.6,1.2c0,0.1,0,3.3,0,3.3s0,1.5-1.1,1.8c-1.3,0.4-5.4,1.9-5.4,1.9s-1.2,0.2-1.2,1.4c0,1.2,0.1,9.9,0.1,9.9
						s0,1.5,1.1,1.7c1.1,0.1,5,0.9,5,0.9s1,0,1.4-0.7c0.3-0.5,0.6-1.3,0.8-1.8c0-0.1,0.1-0.3,0.2-0.3c0.1,0,0.1,0.2,0.1,0.2l0.9,2.9
						l3.3,0.5c0,0,0-17.3,0-22.1c0-1.2,0-3.9-3.3-3.9C144.6,109.6,142.4,109.6,141.1,109.6z"/>
					<path class="st4" d="M129.6,109.6c-1.9,0-4,0-5.3,0c-1.3,0-4.2,0-4.2,3.2c0,2.1,0,4.4,0,4.4l4.1-1.2l0-2c0,0-0.1-1.1,1-1.1
						c1.1,0,2.1,0,2.1,0s0.6,0.1,0.6,1.2c0,0.1,0,2.7,0,2.7s0.1,1.3-1.1,1.6c-1.3,0.4-5.2,1.9-5.2,1.9s-1.2,0.2-1.2,1.4
						c0,1.2-0.2,9.1-0.2,9.1s0.3,1.1,1.4,1.2c1.1,0.1,5,0.5,5,0.5s1,0,1.4-0.7c0.3-0.5,0.6-1.3,0.8-1.8c0-0.1,0.1-0.3,0.2-0.3
						c0.1,0,0.1,0.2,0.1,0.2l0.9,2.9l3.1,0.5c0,0,0-14.9,0-19.8C132.9,112.3,132.9,109.6,129.6,109.6z"/>
					<path class="st4" d="M68.4,109.7c-1.5,0-3,0-4.6,0c0,4.5,0,9,0,13.5c0,5,0,8.4,4.7,8.4c0.2,0,0.3,0,0.5,0
						c1.6-0.1,8.3-0.4,8.6-0.4c0,0,0,0,0,0c0-7.2,0-14.4,0-21.6c-1.5,0-3,0-4.6,0c0,5.9,0,11.9,0,17.8c0,0-1.6,0.1-2.8,0.1
						c-0.3,0-0.6,0-0.9,0c-1.3-0.1-1-3.2-1-5.9C68.4,117.7,68.4,113.7,68.4,109.7z"/>
					<path class="st4" d="M38.5,109.9c-0.1,0-0.1,0-0.2,0c-1.7,0-9.2-0.1-9.2-0.1c0,8.4,0,17.1,0,25.5c1.6-0.2,3.2-0.4,4.9-0.6
						c0-6.6,0-13.7,0-20.3c0,0,2.6,0,2.8,0c0.7,0,1.3,0.1,1.6,0.5c0.3,0.4,0.2,1,0.3,1.9c0,1.1,0,3,0,4.1c0,4.5,0,8.9,0,13.4
						c1.6-0.2,3.2-0.4,4.9-0.5c0-4.9,0-10.7,0-15.6c0,0,0,0,0,0C43.6,112.5,43.5,109.9,38.5,109.9z"/>
					<path class="st4" d="M80.8,124.7c0,0-0.1,0.7-0.1,1.7c0,0.2,0,0.4,0,0.6c0,2.4,2.4,4.3,4.6,4.3c0,0,0,0,0,0c1,0,2,0,3,0
						c2.3,0,4.7-1.9,4.7-4.3c0-1.5,0-3.1,0-4.6c0-0.9-0.5-2.2-1.2-2.8c-1.1-1-2.6-1.1-4-1.1c-0.9,0-2.6,0-2.6-1.1c0-0.5,0-3,0-3.3
						c0.1-1,1-1.3,1.7-1.3c1.7,0.1,1.7,1.5,1.7,3.3c1.5-0.4,2.9-0.9,4.4-1.3c0-0.3,0-0.7,0-1c0-2.4-2.4-4.3-4.7-4.3
						c-1,0-1.9,0-2.9,0c-2.3,0-4.7,2-4.7,4.3c0,1.5,0,3,0,4.5c0,0.9,0.5,2.2,1.2,2.8c1,0.9,2.5,1.1,3.8,1.1c0.5,0,0.9,0,1.4,0
						c0.3,0,0.7,0,1,0.2c0.3,0.2,0.5,0.6,0.5,1c0,0.5,0,0.7,0,1c0,0.3,0,0.6,0,0.9c0,0.6,0.1,1.1-0.1,1.6c-0.2,0.5-0.8,0.9-1.6,0.9
						c-0.4,0-1-0.2-1.3-0.4c-0.6-0.5-0.5-1.1-0.5-1.8C83.6,125.3,82.2,125,80.8,124.7z"/>
					<path class="st4" d="M110.6,112.9c0.5,0,1.4,0.4,1.4,1.1c0,0.7,0,2.3,0,3.2c1.5-0.3,2.9-0.7,4.4-1c0-0.7,0-1.5,0-2.2
						c0-2.4-2.3-4.5-4.7-4.5c-0.9,0-1.8,0-2.8,0c0,0,0,0,0,0c-2.3,0-4.6,2-4.6,4.3c0,4.5,0,8.9,0,13.4c0,2.4,2.4,4.4,4.7,4.5
						c0.9,0,1.8,0.1,2.8,0.1c0,0,0.1,0,0.2,0c2.3,0,4.5-1.8,4.5-4.2c0-0.4,0-0.9,0-1.3c-1.5-0.5-2.9-1.1-4.4-1.6c0,0.8,0,1.7,0,2.4
						c0,0.8-0.8,1.2-1.6,1.2c0,0,0,0,0,0c-1.4,0-1.6-1.2-1.6-2.3c0-3.4,0-7.2,0-10.6c0-0.9,0.1-1.7,0.4-2
						C109.6,113,109.9,112.9,110.6,112.9z"/>
					<path class="st4" d="M100.5,109.3c-1.4,0-2.8,0-4.2,0c0,7.3,0,14.6,0,22c1.4,0,2.8,0.1,4.2,0.1
						C100.5,124,100.5,116.7,100.5,109.3z"/>
				</g>
				<g>
					<path class="st1" d="M160.5,43.8c-0.1-1.7-0.4-3.2-1.1-4.7c-2-4.4-5.9-9.5-10.6-13.6c-3.1-2.7-9.3-7.3-15.3-7.4
						c-0.1,0-0.2,0-0.2,0c-7,0-11.5,3.4-15.9,6.7c-1.2,0.9-2.4,1.8-3.7,2.7c-3.3,2.2-6.2,3.7-6.2,3.7L104.2,18h-30L71,31.4
						c0,0-3.2-1.8-6.5-4c-1.3-0.9-2.5-1.8-3.7-2.7c-4.3-3.3-8.8-6.7-15.9-6.7c-0.1,0-0.2,0-0.2,0c-6,0.1-12.2,4.7-15.3,7.4
						c-4.7,4.1-8.7,9.2-10.6,13.6c-0.5,1.1-0.8,2.3-0.9,3.6c-0.3,3.5,0.6,8,2.7,13.2c0.4,1.1,0.9,2.1,1.4,3.1
						c2.3,4.9,5.2,9.4,8.6,13.6c0,0.1,0,0.1,0,0.1l0.3,0.4c-0.2,2.4-0.3,5-0.4,7.6c-0.1,3.7-0.2,7.5-0.2,11.7c0,3.4,0,6.9,0,10.7
						v2.3c0,0.4,0,0.8,0,1.2c-0.6,0-1.1,0-1.1,0c-0.9,0-1.8,0.4-2.4,1c-0.6,0.6-0.9,1.4-0.9,2.2v2.2v23.3c0,0.9,0.4,1.8,1.1,2.4
						c0.7,0.6,1.6,0.9,2.6,0.8c1.6-0.2,3.2-0.4,4.8-0.6c0.9-0.1,1.7-0.6,2.2-1.3c0.7,0.6,1.5,0.8,2.4,0.7c0.6-0.1,1.2-0.1,1.8-0.2
						c3.7,5.2,8.4,10.2,13.9,14.6c13.1,10.7,28.2,16.5,35.7,16.5c7.8,0,22-5.1,34.8-16.1c4.4-3.8,9.1-8.7,13-14.8
						c1,0.2,3.1,0.5,4.4,0.8c0.2,0,0.4,0.1,0.6,0.1c0.5,0,1-0.1,1.6-0.3c0.4,0.2,0.8,0.4,1.2,0.5l3.1,0.5c0.2,0,0.5,0.1,0.7,0.1
						c0.8,0,1.5-0.3,2.1-0.8c0.7-0.6,1.1-1.5,1.1-2.4v-22.1c0-0.2,0-0.3,0-0.6c0-0.9-0.1-2.1-0.7-3.3c-0.4-0.7-1-1.7-2.2-2.4
						c1.2-1.8,1-3.8,0.6-5.1c-0.4-1.1-1.4-2-2.5-2.2c-0.1,0-0.2,0-0.2,0v-1.5c0-2,0-3.9,0-5.7c0-4.2,0.1-8.2,0-11.8
						c0-2.5,0-4.8-0.1-7c0,0,0.3-0.4,0.3-0.4c1.1-1.7,2.4-3.2,3.6-4.9c1.7-2.4,3.7-5.9,5.4-9.9c0.4-0.9,0.8-1.8,1.1-2.8
						C159.5,52.5,160.8,48,160.5,43.8z M43.5,118.9c0,4.9,0,9.8,0,14.6c-1.6,0.2-3.2,0.3-4.9,0.5c0-4.5,0-8.9,0-13.4
						c0-1.1,0-3,0-4.1c0-0.8,0-1.5-0.3-1.9c-0.3-0.4-0.9-0.5-1.6-0.5c-0.2,0-2.8,0-2.8,0c0,6.6,0,13.7,0,20.3
						c-1.6,0.2-3.2,0.4-4.9,0.6c0-8.4,0-17.1,0-25.5c0,0,7.5,0.1,9.2,0.1c0.1,0,0.1,0,0.2,0c5,0,5,2.6,5,8
						C43.5,118.2,43.5,118.6,43.5,118.9z M62.7,64.5l-20.9-2.8c1.3-2.9,2.7-5.4,4.3-7.9c0.3-0.4,0.5-0.8,0.8-1.2l15.9,5.4
						c-0.2,1.2-0.3,2.3-0.3,3.4C62.6,62.5,62.6,63.5,62.7,64.5z M63.1,68.6c0.3,1.7,0.7,3.3,1.2,4.9l-27.5,6
						c0.6-3.9,1.4-7.4,2.3-10.5L63.1,68.6z M65.7,77c0.3,0.6,0.6,1.3,1,1.9l0.4,0.7l0,0l0,0l0.5,0.9c0.2,0.4,0.3,0.8,0.4,1.1v0
						l-32.7,23.5v-2.1c0-4.8,0.1-9.1,0.4-13L65.7,77z M69.3,127.6c0.2,0,0.5,0,0.9,0c1.2,0,2.8-0.1,2.8-0.1c0-5.9,0-11.9,0-17.8
						c1.5,0,3,0,4.6,0c0,7.2,0,14.4,0,21.6c0,0,0,0,0,0c-0.3,0-6.9,0.4-8.6,0.4c-0.2,0-0.3,0-0.5,0c-4.7,0-4.7-3.4-4.7-8.4
						c0-4.5,0-9,0-13.5c1.5,0,3,0,4.6,0c0,4,0,8,0,12C68.4,124.4,68.1,127.5,69.3,127.6z M85.5,127.4c0.3,0.2,0.8,0.4,1.3,0.4
						c0.8,0,1.4-0.4,1.6-0.9c0.2-0.5,0.1-1,0.1-1.6c0-0.3,0-0.6,0-0.9c0-0.4,0-0.6,0-1c0-0.4-0.1-0.8-0.5-1c-0.3-0.2-0.6-0.2-1-0.2
						c-0.5,0-0.9,0-1.4,0c-1.3,0-2.8-0.2-3.8-1.1c-0.7-0.6-1.2-1.9-1.2-2.8c0-1.5,0-3,0-4.5c0-2.4,2.4-4.3,4.7-4.3c1,0,1.9,0,2.9,0
						c2.3,0,4.7,2,4.7,4.3c0,0.3,0,0.7,0,1c-1.5,0.4-2.9,0.9-4.4,1.3c0-1.8,0-3.2-1.7-3.3c-0.7,0-1.6,0.3-1.7,1.3c0,0.2,0,2.8,0,3.3
						c-0.1,1.2,1.7,1.1,2.6,1.1c1.4,0,2.9,0.1,4,1.1c0.7,0.6,1.2,1.9,1.2,2.8c0,1.5,0,3.1,0,4.6c0,2.4-2.4,4.3-4.7,4.3c-1,0-2,0-3,0
						c0,0,0,0,0,0c-2.3,0-4.7-1.9-4.6-4.3c0-0.2,0-0.4,0-0.6c0-0.9,0.1-1.7,0.1-1.7c1.4,0.3,2.8,0.6,4.3,0.9
						C85,126.3,85,126.9,85.5,127.4z M90.3,136.3c8.4,0,16.7,2.2,19.1,5.5l11.8,1.2c0,0-3.8,3.9-5.5,4.5l-9.1,1.1
						c-3.8,2.8-10.2,5.5-16.2,5.5c-5.6,0-12.4-2.7-16.4-5.5l-9.4-1c-1.7-0.6-5.5-4.5-5.5-4.5l12.4-1.2
						C74.2,138.6,82,136.3,90.3,136.3z M96.3,114.7c1.4,0,2.8,0,4.2,0c0,7.3,0,9.3,0,16.7c-1.4,0-2.8-0.1-4.2-0.1
						C96.3,124,96.3,122,96.3,114.7z M108.8,126.1c0,1.1,0.2,2.3,1.6,2.3c0,0,0,0,0,0c0.8,0,1.6-0.5,1.6-1.2c0-0.7,0-1.7,0-2.4
						c1.5,0.5,2.9,1,4.4,1.6c0,0.4,0,0.9,0,1.3c0,2.4-2.3,4.2-4.5,4.2c-0.1,0-0.1,0-0.2,0c-0.9,0-1.8-0.1-2.8-0.1
						c-2.3-0.1-4.7-2.2-4.7-4.5c0-4.5,0-8.9,0-13.4c0-2.4,2.4-4.3,4.6-4.3c0,0,0,0,0,0c0.9,0,1.8,0,2.8,0c2.3,0,4.7,2.1,4.7,4.5
						c0,0.7,0,1.5,0,2.2c-1.5,0.3-2.9,0.7-4.4,1c0-0.8,0-2.5,0-3.2c0-0.7-0.9-1.1-1.4-1.1c-0.8,0-1,0.1-1.5,0.5
						c-0.3,0.3-0.4,1.1-0.4,2C108.8,118.9,108.8,122.7,108.8,126.1z M55.1,117.3c0,0,0-1.8,0-2.6c0-0.8-0.7-0.9-0.7-0.9s-0.7,0-2,0
						c-0.8,0-1,0.3-1,0.9c0,0.6,0,1.6,0,1.6l-4.2,1.3c0,0,0-1.5,0-3.7c0-3.3,2.3-4.1,4.6-4.1c1.3,0,0.1,0,3.3,0c4.3,0,5,2,5,4.5
						c0,8.2,0,17.8,0,17.8l-3.5,0.3l-0.5-2.4c0-0.2-0.2-0.2-0.2,0c-0.3,1-1.1,2.5-2.3,2.7c-0.8,0.1-3.5,0.2-5,0.2
						c-1.5,0-1.5-1.6-1.5-1.6s0-7.3,0-9c0-1.7,1.3-1.9,1.8-2c1.2-0.4,2.7-0.8,4.6-1.3C55.4,118.3,55.1,117.3,55.1,117.3z
						 M121.9,148.2c-8.6,7.4-22.2,14.9-31.5,14.9c-6.7,0-20.7-5.7-32.5-15.3c-3.9-3.2-8.2-7.3-11.9-12.2c0.1-0.1,0.1-0.2,0.2-0.2
						c0.7,0.5,1.6,0.7,2.6,0.7c0.4,0,0.8,0,1.3,0c3,3.6,6.3,6.7,9.5,9.3c3.8,3.1,7.9,5.8,11.9,8c7.6,4.2,14.8,6.6,19,6.6
						c5.3,0,12.1-2.6,18.5-6.2c4.2-2.4,8.2-5.2,11.5-8c3-2.6,6.3-5.9,9.2-9.8l2.9,0.5c0.1,0,0.2,0,0.3,0
						C129.3,141.3,125.5,145.2,121.9,148.2z M132.9,133.3l-3.1-0.5l-0.9-2.9c0,0,0-0.2-0.1-0.2c-0.1,0-0.1,0.2-0.2,0.3
						c-0.2,0.5-0.5,1.4-0.8,1.8c-0.4,0.7-1.4,0.7-1.4,0.7s-3.8-0.3-5-0.5c-1.1-0.1-1.4-1.2-1.4-1.2s0.2-8,0.2-9.1
						c0-1.2,1.2-1.4,1.2-1.4s3.9-1.5,5.2-1.9c1.3-0.4,1.1-1.6,1.1-1.6s0-2.5,0-2.7c0-1.1-0.6-1.2-0.6-1.2s-0.9,0-2.1,0
						c-1.1,0-1,1.1-1,1.1l0,2l-4.1,1.2c0,0,0-2.3,0-4.4c0-3.2,2.9-3.2,4.2-3.2c1.3,0,3.4,0,5.3,0c3.3,0,3.3,2.7,3.3,3.9
						C132.9,118.4,132.9,133.3,132.9,133.3z M136.5,101.2l-26.9-19.4c0-0.1,0-0.1,0-0.2c0.9-1.4,1.7-2.9,2.4-4.5l30.7,13.4
						c0.1,2.5,0.1,5.2,0.1,8c0,0.3,0,0.6,0,0.9v0.6c-0.2,0-0.3,0-0.5,0H139c-0.9,0-1.7,0.3-2.3,0.9
						C136.7,101,136.6,101.1,136.5,101.2z M115.2,58.4l18.7-6c1.7,2.6,3.2,5.6,4.4,9l-23,3.1c0.1-1,0.1-2,0.1-3
						C115.4,60.5,115.3,59.4,115.2,58.4z M140.3,68.7c0.7,3.3,1.3,7,1.7,11.1l-28.6-6.2c0.5-1.7,1-3.4,1.3-5.1L140.3,68.7z
						 M141.6,106c-0.9,0.9-1.9,1-2.3,1c-0.1,0-0.2,0-0.2,0c0-1.2,0-2.5,0-3.7c1.1,0,2.3,0,3.4,0C142.4,103.2,142.9,104.7,141.6,106z
						 M149.8,113.5c0,4.9,0,22.1,0,22.1l-3.3-0.5l-0.9-2.9c0,0,0-0.2-0.1-0.2c-0.1,0-0.1,0.2-0.2,0.3c-0.2,0.5-0.5,1.4-0.8,1.8
						c-0.4,0.7-1.4,0.7-1.4,0.7s-3.8-0.7-5-0.9c-1.1-0.1-1.1-1.7-1.1-1.7s-0.1-8.7-0.1-9.9c0-1.2,1.2-1.4,1.2-1.4s4.1-1.5,5.4-1.9
						c1.1-0.3,1.1-1.8,1.1-1.8s0-3.1,0-3.3c0-1.1-0.6-1.2-0.6-1.2s-1.1,0-2.2,0c-1.1,0-1,1.1-1,1.1l0,2.4l-4.1,1.2c0,0,0-2.7,0-4.8
						c0-3.2,2.9-3.2,4.2-3.2c1.3,0,3.6,0,5.5,0C149.8,109.6,149.8,112.3,149.8,113.5z M144.2,103.2c1.1,0,2.3,0,3.4,0
						c0,0,0.5,1.4-0.8,2.8c-0.9,0.9-1.9,1-2.3,1c-0.1,0-0.2,0-0.2,0c0,0,0,0,0,0C144.2,105.8,144.2,104.5,144.2,103.2z M153.7,59.3
						c-1,2.1-2,4-3,5.6l0,0l0,0l-2,2.5l-0.7,0.8c0-1.2-0.1-2.5-0.1-3.9c0-1.4-0.1-2.8-0.1-4.3c0-0.2,0-0.3,0-0.5c0-0.1,0-0.3,0-0.4
						c0-0.4,0-0.9,0-1.3c0-0.3,0-0.5,0-0.8l0-0.6c0-0.1,0-0.2,0-0.3l0-0.3c0-0.3,0-0.6,0-1c0-0.1,0-0.2,0-0.3c0-0.1,0-0.3,0-0.4
						c0-0.1,0-0.1,0-0.2c0-0.4-0.1-0.8-0.2-1.2c0-0.1,0-0.3-0.1-0.4c0,0,0,0,0-0.1c0-0.1,0-0.1,0-0.2v0c0-0.1,0-0.3-0.1-0.4
						c0-0.1,0-0.1,0-0.2c0-0.2-0.1-0.4-0.1-0.6c-0.1-0.4-0.2-0.8-0.3-1.1c-0.2-0.5-0.4-1-0.6-1.5c-0.4-1-0.9-1.9-1.5-2.8
						c-0.1-0.1-0.2-0.2-0.3-0.4c-0.5-0.7-1-1.3-1.6-1.9c-0.4-0.4-0.8-0.8-1.3-1.2c-1.2-1-2.5-1.8-3.7-2.5c-0.6-0.3-1.2-0.6-1.8-0.9
						c0,0,0,0,0,0c-0.7-0.2-1.4-0.4-2-0.4c-0.2,0-0.5,0-0.7,0c-0.8,0-1.6,0.1-2.3,0.4c-0.2,0.1-0.3,0.1-0.5,0.2
						c-1.9,0.7-4.5,1.7-7.2,3c-5.9,2.8-12,7.1-11.4,13.2c0.1,0.2,0.1,0.4,0.2,0.6c0.2,1.2,0.3,2.4,0.4,3.6c0.1,0.7,0.1,1.5,0.1,2.2
						c0,1.1-0.1,2.3-0.2,3.4c-0.1,1.2-0.3,2.4-0.5,3.5c-0.3,1.6-0.7,3.1-1.2,4.5c-0.4,1-0.8,2.1-1.2,3.1c-0.6,1.4-1.4,2.8-2.2,4.1
						c-0.1,0.1-0.1,0.2-0.2,0.3c-0.5,1.5-0.6,3.4,1,4.8c3,2.7,7.3,7.5,4.1,17.3c-0.4,1.1-1.3,1.7-2.2,1.7c-1.1,0-2.2-0.9-2.2-3
						c0-2.7-1.1-7.3-5.8-10.1c-1.9-1.1-3.1-1.5-4.3-1.5c-0.8,0-1.6,0.2-2.6,0.4c-1.2,0.4-4,1-6.1,1c-1.9,0-4.3-0.5-5.4-0.8v0
						c-1.5-0.3-2.5-0.6-3.6-0.6c-1.2,0-2.4,0.4-4.2,1.5c-4.6,2.8-5.8,7.5-5.8,10.1c0,2.1-1.1,3-2.2,3c-0.9,0-1.8-0.6-2.2-1.7
						c-3.1-9.7,1.1-14.6,4.1-17.3c1.8-1.6,1.4-3.9,0.8-5.4c-0.1-0.3-0.2-0.5-0.3-0.7l-0.5-0.9l-0.4-0.7c-0.3-0.6-0.6-1.1-0.9-1.7
						c-0.5-1-0.9-2-1.2-3c-0.5-1.4-0.8-2.8-1.1-4.3c-0.2-1.1-0.4-2.3-0.5-3.6c-0.1-1.1-0.1-2.3-0.1-3.5c0-0.8,0.1-1.6,0.2-2.4
						c0,0,0,0,0,0c0.2-1.3,0.4-2.7,0.8-4c0-0.3,0-0.5,0-0.8c0-5.1-4.7-8.9-9.7-11.5c-2.8-1.5-5.6-2.6-7.9-3.4
						c-0.5-0.2-1.1-0.4-1.5-0.6c-0.8-0.3-1.5-0.4-2.3-0.4c-0.6,0-1.2,0.1-1.7,0.2h0c-0.6,0.3-1.3,0.6-1.9,1c0,0,0,0,0,0
						c-0.2,0.1-0.3,0.2-0.5,0.3c-1.3,0.7-2.5,1.6-3.7,2.6c-0.2,0.2-0.4,0.4-0.6,0.6h0c-0.8,0.7-1.4,1.5-2.1,2.4
						c-0.1,0.2-0.3,0.4-0.4,0.5c-0.4,0.7-0.8,1.4-1.2,2.1c-0.3,0.6-0.6,1.3-0.8,2c0,0,0,0,0,0c0,0,0,0.1,0,0.1
						c-0.2,0.8-0.4,1.6-0.6,2.3c-0.2,0.8-0.2,1.6-0.3,2.4c-0.1,1.6-0.1,3.3-0.1,5c0,0.2,0,0.4,0,0.5c0,0,0,0.1,0,0.1
						c0,0.3,0,0.6,0,0.9c0,0,0,0.1,0,0.1c0,0.5,0,1.1-0.1,1.6c0,0.5,0,1-0.1,1.4c0,1.1-0.1,2.1-0.1,3.1v0l-2.7-3.3l-0.1-0.1l0,0
						c-0.9-1.4-1.8-3-2.6-4.7c-2.6-5.2-4.9-11.2-4.7-15.9c0-1.3,0.3-2.4,0.7-3.4c3.5-8,15.1-19.2,23.2-19.3h0.2
						c7.8,0,12,4.9,17.9,8.9c2,1.3,3.9,2.5,5.7,3.6c0.1,0.1,0.3,0.2,0.4,0.2h0c2.5,1.4,4.7,2.4,6.1,2.4c0.1,0,0.2,0,0.2,0
						c1.5-0.2,1.6-2.9,1.6-2.9l0,0.4c0-0.2,0-0.3,0-0.5c0-0.1,0-0.2,0-0.3v-6c0-1.9,1.5-3.4,3.4-3.4h17.7c1.9,0,3.4,1.5,3.4,3.4v6.5
						c0,0.6,0.1,1.3,0.3,2.1c0.1,0.2,0.2,0.3,0.3,0.4c0.2,0.2,0.4,0.3,0.7,0.3c0.1,0,0.2,0,0.3,0c0.3,0,0.6,0,1-0.1
						c1.4-0.3,3.3-1.2,5.4-2.4h0c0.2-0.1,0.5-0.3,0.7-0.4c1.6-1,3.3-2.1,5-3.2c5.9-4,10.1-8.9,17.9-8.9h0.2
						c8.2,0.1,19.7,11.3,23.2,19.3c0.6,1.3,0.8,2.8,0.9,4.4C157.7,49.2,155.9,54.6,153.7,59.3z"/>
					<path class="st1" d="M55.2,121.2c0,0,0,3.8,0,5.4c0,1.1-1.3,2.2-3.1,2.2c-0.5,0-0.8-0.2-0.8-0.9c0-1,0-2.9,0-4.2
						c0-0.7,0-1,0.6-1.2C52.8,122.3,55.2,121.7,55.2,121.2z"/>
				</g>
				<g>
					<path class="st5" d="M90.3,152.7c7.5,0,15.7-5.1,16.5-7.7c1.4-4.3-7.4-7.3-16.5-7.3c-9.1,0-17.7,3.4-16.5,7.3
						C74.7,148,83.6,152.7,90.3,152.7z M91.4,142.7l1.4-1.4h6.6l1.3,1.3v1.1h-2v-0.6l-0.5-0.5H94l-0.6,0.6v2.7l0.4,0.4l0.2,0.2h4.1
						l0.5-0.5v-0.6h2v1.1l0,0l-1.3,1.3h-6.6l-1.3-1.3l0,0V142.7z M80.8,146.6h1.1v-4.1h-1.1v-1.2h9v2h-1.8v-0.8h-4.1v1.5h4.9v1.3
						h-4.9v1.3h1.5v1.2h-4.6V146.6z"/>
					<path class="st5" d="M100.9,63c0,8.4-6.9,15.3-11.8,15.3C84.2,78.3,77,71.5,77,63c0-3.1,0-6.4,0-6.4c0-4.4,3.9-8.2,9.3-8.2h5.8
						c5.3,0,8.8,3.6,8.8,7.9C100.9,56.4,100.9,60.4,100.9,63z"/>
				</g>
				<rect x="96.3" y="109.5" class="st4" width="4.2" height="3.1"/>
			</g>
		</g>
		<path class="st1" d="M128.3,120.7c0,0,0,3.8,0,5.4c0,1.1-1.3,2.2-3.1,2.2c-0.5,0-0.8-0.2-0.8-0.9c0-1,0-2.8,0-4c0-0.7,0-1,0.6-1.2
			C126,121.9,128.3,121.2,128.3,120.7z"/>
		<path class="st1" d="M145,122c0,0,0,4,0,5.6c0,1.2-1.3,2.3-3.1,2.3c-0.5,0-0.8-0.2-0.8-0.9c0-1.1,0-3,0-4.3c0-0.8,0-1,0.6-1.2
			C142.7,123.2,145,122.6,145,122z"/>
	</g>
	<g>
		<g>
			<g>
				<g>
					<path class="st3" d="M308.1,136.1c-3,3.9-6.2,7.2-9.2,9.8c-3.3,2.8-7.3,5.6-11.5,8c-6.3,3.6-13.1,6.2-18.5,6.2
						c-4.2,0-11.4-2.4-19-6.6c-4-2.2-8-4.9-11.9-8c-3.1-2.5-6.4-5.6-9.5-9.3c-0.5,0-0.9,0-1.3,0c-1,0-1.8-0.3-2.6-0.7
						c-0.1,0.1-0.1,0.2-0.2,0.2c3.7,4.9,8,9,11.9,12.2c11.7,9.6,25.7,15.3,32.5,15.3c9.4,0,22.9-7.5,31.5-14.9
						c3.6-3.1,7.4-7,10.8-11.7c-0.1,0-0.2,0-0.3,0L308.1,136.1z"/>
					<path class="st3" d="M316.9,61.5c-1.2-3.5-2.7-6.5-4.4-9l-18.7,6c0.1,1.1,0.2,2.1,0.2,3.1c0,1,0,2-0.1,3L316.9,61.5z"/>
					<path class="st3" d="M321.1,100.1c0.2,0,0.3,0,0.5,0v-0.6c0-0.3,0-0.6,0-0.9c0-2.8,0-5.5-0.1-8l-30.7-13.4
						c-0.7,1.6-1.5,3-2.4,4.5c0,0.1,0,0.2,0,0.2l26.9,19.4c0.1-0.1,0.1-0.2,0.2-0.2c0.6-0.6,1.4-0.9,2.3-0.9H321.1z"/>
					<path class="st3" d="M225.6,52.8c-0.3,0.4-0.6,0.8-0.8,1.2c-1.6,2.4-3.1,5-4.3,7.9l20.9,2.8c-0.1-1-0.1-2-0.1-3.1
						c0-1.1,0.1-2.2,0.3-3.4L225.6,52.8z"/>
					<path class="st3" d="M214,103.2v2.1l32.7-23.5v0c-0.1-0.4-0.2-0.8-0.4-1.1l-0.5-0.9l0,0l0,0l-0.4-0.7c-0.3-0.6-0.7-1.3-1-1.9
						l-30,13.1C214.1,94.1,214,98.4,214,103.2z"/>
					<path class="st3" d="M292.2,73.6l28.6,6.2c-0.4-4.1-1-7.8-1.7-11.1l-25.5-0.2C293.1,70.3,292.7,72,292.2,73.6z"/>
					<path class="st3" d="M215.5,79.5l27.5-6c-0.5-1.6-0.9-3.2-1.2-4.9l-24,0.4C216.9,72.1,216.1,75.6,215.5,79.5z"/>
					<path class="st3" d="M222.2,133.6c0-4.9,0-9.8,0-14.6c0-0.3,0-0.7,0-1c0,0,0,0,0,0C222.2,122.9,222.2,128.8,222.2,133.6z"/>
					<path class="st3" d="M329.5,62.3c0.1-0.8,0.1-1.6,0.2-2.5v0c0-0.8,0.1-1.7,0.1-2.5l0-0.6c0-0.1,0-0.2,0-0.3v-0.3
						c0-0.5,0-0.9,0-1.4c-0.1-0.9-0.2-1.9-0.3-2.8c-0.2-0.9-0.4-1.9-0.7-2.8c-0.2-0.5-0.4-1-0.6-1.5c-0.6-1.3-1.3-2.6-2.2-3.7
						c-1.2-1.5-2.6-2.8-4-3.8c-1.5-1-3-1.8-4.5-2.4c-1.5-0.6-2.9-1-4.3-1.3c-1.3-0.3-2.6-0.5-3.7-0.6c-1.1-0.1-2.1-0.1-2.9-0.1
						c-0.5,0-0.9,0-1.2,0h0c-0.2,0-0.4,0-0.6,0c-0.4,0-0.6,0.1-0.6,0.1s0.9,0.1,2.4,0.5c0.8,0.2,1.7,0.4,2.7,0.7
						c0.1,0,0.2,0.1,0.4,0.1c0,0,0,0,0,0c0.9,0.3,1.9,0.6,3,1c0.7,0.3,1.3,0.5,2,0.9c0,0,0,0,0,0c0.6,0.3,1.2,0.6,1.8,0.9
						c1.3,0.7,2.6,1.5,3.7,2.5c0.4,0.4,0.9,0.8,1.3,1.2c0.6,0.6,1.1,1.2,1.6,1.9c0.1,0.1,0.2,0.2,0.3,0.4c0.6,0.9,1.1,1.8,1.5,2.8
						c0.2,0.5,0.4,1,0.6,1.5c0.1,0.4,0.2,0.8,0.3,1.1c0,0.2,0.1,0.4,0.1,0.6c0,0.1,0,0.1,0,0.2c0,0.1,0.1,0.3,0.1,0.4v0
						c0,0.1,0,0.1,0,0.2c0,0,0,0,0,0.1c0,0.1,0.1,0.3,0.1,0.4c0.1,0.4,0.1,0.8,0.2,1.2c0,0.1,0,0.1,0,0.2c0,0.1,0,0.3,0,0.4
						c0,0.1,0,0.2,0,0.3c0,0.3,0,0.6,0,1l0,0.3c0,0.1,0,0.2,0,0.3l0,0.6c0,0.3,0,0.5,0,0.8c0,0.5,0,0.9,0,1.3c0,0.1,0,0.3,0,0.4
						c0,0.2,0,0.3,0,0.5c0,1.5,0,2.9,0.1,4.3c0,1.4,0.1,2.7,0.1,3.9l0.7-0.8l2-2.5c0-0.2,0-0.3,0.1-0.5
						C329.4,63.9,329.5,63.1,329.5,62.3z"/>
					<path class="st3" d="M226.6,36.9c1-0.3,1.9-0.5,2.7-0.7c1.5-0.3,2.4-0.5,2.4-0.5s-0.2,0-0.6-0.1c-0.4,0-0.9-0.1-1.5-0.1h0
						c-0.1,0-0.2,0-0.3,0c-0.8,0-1.7,0-2.8,0.1c-1.1,0.1-2.3,0.3-3.7,0.6c-1.3,0.3-2.8,0.7-4.2,1.3c-1.5,0.6-3,1.4-4.4,2.5
						c-1.4,1.1-2.8,2.4-3.9,3.9c-0.7,0.9-1.3,1.9-1.7,2.9c-0.3,0.7-0.6,1.5-0.9,2.2c-0.6,1.8-0.9,3.7-1,5.6c-0.1,0.9,0,1.9,0,2.7
						c0,0.9,0.1,1.7,0.1,2.5c0,0,0,0.1,0,0.1c0,0.8,0.1,1.6,0.1,2.4c0,0.7,0.1,1.4,0.1,2.1c0,0,0,0,0,0l2.7,3.3v0
						c0.1-1,0.1-2,0.1-3.1c0-0.5,0-0.9,0.1-1.4c0-0.5,0-1.1,0.1-1.6c0,0,0-0.1,0-0.1c0-0.3,0-0.6,0-0.9c0,0,0-0.1,0-0.1
						c0-0.2,0-0.4,0-0.5c0.1-1.6,0-3.4,0.1-5c0.1-0.8,0.1-1.6,0.3-2.4c0.1-0.8,0.3-1.6,0.6-2.3c0,0,0-0.1,0-0.1c0,0,0,0,0,0
						c0.2-0.7,0.5-1.4,0.8-2c0.3-0.7,0.7-1.5,1.2-2.1c0.1-0.2,0.2-0.4,0.4-0.5c0.6-0.9,1.3-1.6,2.1-2.4h0c0.2-0.2,0.4-0.4,0.6-0.6
						c1.2-1,2.4-1.9,3.7-2.6c0.2-0.1,0.3-0.2,0.5-0.3c0,0,0,0,0,0c0.6-0.3,1.3-0.7,1.9-1h0c0.4-0.2,0.9-0.4,1.3-0.6
						C224.5,37.6,225.6,37.2,226.6,36.9z"/>
					<path class="st3" d="M268,46.5c-6.5,0-10.4,1.4-12.4,4.6c-1.9,2.9-1.9,6.6-1.9,11c0,0.1,0,0.2,0,0.2c0,1.4,0.1,2.7,0.4,4
						c0.1,0.7,0.3,1.4,0.5,2.1c0.3,0.8,0.6,1.6,0.9,2.4c0.2,0.4,0.4,0.8,0.6,1.1c0.4,0.7,0.8,1.4,1.3,2.1c3.1,4.3,7.6,6.4,10.6,6.4
						c2.5,0,5.9-1.9,8.5-4.7c0.4-0.4,0.8-0.9,1.2-1.5c0.5-0.6,1-1.3,1.4-2.1c0.2-0.4,0.4-0.8,0.6-1.2c0.4-0.8,0.7-1.6,1-2.5
						c0.2-0.7,0.4-1.4,0.5-2.1c0.2-1.2,0.4-2.5,0.4-3.9c0-0.1,0-0.2,0-0.3c0-0.4,0-0.8,0-1.2c0-4.6,0-8.6-2.7-11.3
						C276.8,47.5,273.3,46.5,268,46.5z M279.6,62.1c0,0.3,0,0.6,0,0.9c0,0.3,0,0.5,0,0.8c0,0,0,0.1,0,0.1c0,0.2,0,0.4-0.1,0.5
						c0,0.1,0,0.3-0.1,0.4c0,0.1,0,0.3-0.1,0.4c0,0.1,0,0.3-0.1,0.4c0,0.2-0.1,0.3-0.1,0.5c0,0,0,0,0,0c0,0.1,0,0.2-0.1,0.3
						c0,0.2-0.1,0.3-0.1,0.5c0,0.1-0.1,0.3-0.1,0.4c0,0.1-0.1,0.3-0.1,0.4c0,0,0,0,0,0c-0.1,0.2-0.1,0.3-0.2,0.5
						c-0.1,0.2-0.1,0.4-0.2,0.5c0,0,0,0,0,0c-0.1,0.2-0.1,0.4-0.2,0.5c-0.1,0.2-0.2,0.3-0.2,0.5c-0.1,0.2-0.2,0.3-0.2,0.5
						c-0.1,0.3-0.3,0.6-0.4,0.8c0,0-0.1,0.1-0.1,0.1c-0.1,0.1-0.1,0.2-0.2,0.3c-0.1,0.1-0.1,0.2-0.2,0.3c-0.1,0.1-0.1,0.2-0.2,0.3
						c0,0,0,0,0,0c-0.1,0.2-0.3,0.4-0.4,0.6c0,0,0,0,0,0c0,0,0,0.1-0.1,0.1c-0.1,0.1-0.1,0.1-0.2,0.2c-0.1,0.1-0.1,0.2-0.2,0.3
						c-0.2,0.3-0.5,0.6-0.7,0.8c-0.1,0.1-0.3,0.3-0.4,0.4c0,0,0,0-0.1,0.1c-0.1,0.1-0.3,0.3-0.4,0.4c-0.1,0-0.1,0.1-0.2,0.1
						c-0.1,0.1-0.2,0.2-0.4,0.3c-0.2,0.1-0.3,0.3-0.5,0.4c-0.1,0.1-0.3,0.2-0.4,0.3c-0.1,0.1-0.1,0.1-0.2,0.2
						c-0.1,0-0.1,0.1-0.2,0.1c-0.1,0.1-0.2,0.1-0.3,0.2c-0.1,0.1-0.2,0.1-0.3,0.2c-0.1,0.1-0.2,0.1-0.3,0.2c-0.7,0.4-1.4,0.7-2,0.9
						c0,0-0.1,0-0.1,0c-0.1,0-0.2,0.1-0.3,0.1c0,0,0,0-0.1,0c-0.1,0-0.2,0-0.3,0.1c-0.1,0-0.2,0-0.3,0c0,0,0,0,0,0
						c-0.1,0-0.2,0-0.3,0c-0.1,0-0.3,0-0.4,0c-0.1,0-0.3,0-0.4,0c-0.1,0-0.3,0-0.4-0.1c-0.1,0-0.1,0-0.2,0c-0.1,0-0.1,0-0.2,0
						c0,0,0,0,0,0c0,0-0.1,0-0.1,0c0,0,0,0-0.1,0c0,0,0,0,0,0c0,0,0,0,0,0c0,0,0,0,0,0c0,0-0.1,0-0.1,0h0c0,0,0,0-0.1,0
						c0,0,0,0-0.1,0c0,0-0.1,0-0.1,0c0,0,0,0,0,0c-0.1,0-0.2-0.1-0.4-0.1c-0.2-0.1-0.3-0.1-0.5-0.2c0,0,0,0,0,0
						c-0.2-0.1-0.3-0.1-0.5-0.2c-0.2-0.1-0.3-0.2-0.5-0.3c-0.2-0.1-0.3-0.2-0.5-0.3c0,0-0.1,0-0.1-0.1c0,0-0.1,0-0.1-0.1
						c0,0,0,0,0,0c0,0,0,0,0,0c-0.1-0.1-0.3-0.2-0.4-0.3c-0.1-0.1-0.2-0.2-0.4-0.3c-0.1-0.1-0.2-0.2-0.3-0.3c0,0,0,0,0,0
						c-0.1-0.1-0.1-0.1-0.2-0.2c0,0,0,0,0,0c-0.1-0.1-0.3-0.2-0.4-0.3c0,0,0,0-0.1-0.1c-0.2-0.1-0.3-0.3-0.5-0.4
						c-0.1-0.1-0.3-0.3-0.4-0.4c-0.2-0.2-0.3-0.3-0.5-0.5c0,0-0.1-0.1-0.1-0.1c-0.1-0.1-0.2-0.3-0.3-0.4c-0.1-0.1-0.2-0.2-0.2-0.3
						c-0.1-0.1-0.2-0.2-0.2-0.3c-0.1-0.1-0.2-0.3-0.3-0.4c0,0,0,0,0,0c-0.1-0.1-0.2-0.3-0.3-0.4c-0.1-0.1-0.2-0.3-0.3-0.4
						c-0.1-0.1-0.2-0.3-0.3-0.5c0,0,0,0,0,0c-0.1-0.2-0.2-0.5-0.4-0.7c0,0,0,0,0,0c-0.1-0.2-0.2-0.4-0.3-0.5
						c-0.1-0.1-0.1-0.3-0.2-0.4c-0.1-0.2-0.1-0.3-0.2-0.5c-0.1-0.2-0.1-0.3-0.2-0.5c0,0,0-0.1,0-0.1c0,0,0,0,0,0
						c0-0.1-0.1-0.2-0.1-0.3c0-0.1-0.1-0.2-0.1-0.3c0-0.1-0.1-0.2-0.1-0.3c0-0.1-0.1-0.2-0.1-0.3c0-0.1-0.1-0.2-0.1-0.3
						c0,0,0,0,0-0.1c0-0.1,0-0.2-0.1-0.3c0-0.1-0.1-0.2-0.1-0.3c0,0,0,0,0,0c0-0.1,0-0.2-0.1-0.3c0-0.1-0.1-0.3-0.1-0.5
						c0-0.1,0-0.3-0.1-0.4c0,0,0-0.1,0-0.1c0-0.1,0-0.3-0.1-0.4c0,0,0,0,0,0c0-0.1,0-0.2,0-0.4c0-0.1,0-0.3,0-0.4c0,0,0-0.1,0-0.1
						c0-0.1,0-0.2,0-0.2c0-0.2,0-0.3,0-0.5c0-0.3,0-0.6,0-0.9c0-8.3,0-13.6,12.3-13.6C280.3,48.5,279.6,53.9,279.6,62.1z"/>
				</g>
				<g>
					<path class="st4" d="M335.4,40.4c-3.5-8-15.1-19.2-23.2-19.3h-0.2c-7.8,0-12,4.9-17.9,8.9c-1.7,1.2-3.4,2.3-5,3.2
						c-0.3,0.1-0.5,0.3-0.7,0.4h0c-2.1,1.2-4,2.1-5.4,2.4c-0.4,0.1-0.7,0.1-1,0.1c-0.1,0-0.2,0-0.3,0c-0.3,0-0.5-0.2-0.7-0.3
						c-0.1-0.1-0.2-0.3-0.3-0.4c-0.2-0.7-0.3-1.5-0.3-2.1v-6.5c0-1.9-1.5-3.4-3.4-3.4h-17.7c-1.9,0-3.4,1.5-3.4,3.4v6
						c0,0.1,0,0.2,0,0.3c0,0.2,0,0.3,0,0.5l0-0.4c0,0-0.1,2.8-1.6,2.9c-0.1,0-0.2,0-0.2,0c-1.4,0-3.5-1-6.1-2.4h0
						c-0.1-0.1-0.3-0.2-0.4-0.2c-1.8-1-3.7-2.3-5.7-3.6c-5.9-4-10.1-8.9-17.9-8.9h-0.2c-8.2,0.1-19.7,11.3-23.2,19.3
						c-0.4,1-0.7,2.2-0.7,3.4c-0.2,4.6,2,10.7,4.7,15.9c0.9,1.7,1.7,3.3,2.6,4.7l0,0l0.1,0.1c0,0,0,0,0,0c-0.1-0.7-0.1-1.4-0.1-2.1
						c0-0.8-0.1-1.6-0.1-2.4c0,0,0-0.1,0-0.1c0-0.8-0.1-1.7-0.1-2.5c0-0.8-0.1-1.8,0-2.7c0.1-1.9,0.4-3.8,1-5.6
						c0.2-0.8,0.5-1.5,0.9-2.2c0.5-1,1.1-2,1.7-2.9c1.1-1.5,2.5-2.8,3.9-3.9c1.4-1.1,3-1.9,4.4-2.5c1.5-0.6,2.9-1,4.2-1.3
						c1.3-0.3,2.6-0.5,3.7-0.6c1.1-0.1,2.1-0.1,2.8-0.1c0.1,0,0.2,0,0.3,0h0c0.6,0,1.1,0.1,1.5,0.1c0.4,0,0.6,0.1,0.6,0.1
						s-0.9,0.1-2.4,0.5c-0.7,0.2-1.7,0.4-2.7,0.7c-1,0.3-2.1,0.7-3.3,1.2c-0.4,0.2-0.9,0.4-1.3,0.6c0.6-0.1,1.2-0.2,1.7-0.2
						c0.8,0,1.6,0.1,2.3,0.4c0.5,0.2,1,0.4,1.5,0.6c2.2,0.8,5.1,2,7.9,3.4c5,2.7,9.7,6.4,9.7,11.5c0,0.3,0,0.5,0,0.8
						c-0.4,1.3-0.7,2.7-0.8,4c0,0,0,0,0,0c-0.1,0.8-0.2,1.6-0.2,2.4c0,1.2,0,2.3,0.1,3.5c0.1,1.2,0.2,2.4,0.5,3.6
						c0.3,1.5,0.6,2.9,1.1,4.3c0.3,1,0.7,2,1.2,3c0.3,0.6,0.6,1.1,0.9,1.7l0.4,0.7l0.5,0.9c0.1,0.2,0.2,0.5,0.3,0.7
						c0.6,1.5,1,3.7-0.8,5.4c-3,2.7-7.3,7.5-4.1,17.3c0.4,1.1,1.3,1.7,2.2,1.7c1.1,0,2.2-0.9,2.2-3c0-2.7,1.1-7.3,5.8-10.1
						c1.9-1.1,3.1-1.5,4.2-1.5c1.1,0,2.2,0.3,3.6,0.6v0c1.1,0.3,3.5,0.8,5.4,0.8c2.1,0,4.9-0.6,6.1-1c1-0.2,1.8-0.4,2.6-0.4
						c1.2,0,2.4,0.4,4.3,1.5c4.6,2.8,5.8,7.5,5.8,10.1c0,2.1,1.1,3,2.2,3c0.9,0,1.8-0.6,2.2-1.7c3.1-9.7-1.1-14.6-4.1-17.3
						c-1.6-1.4-1.5-3.4-1-4.8c0.1-0.1,0.1-0.2,0.2-0.3c0.8-1.3,1.6-2.6,2.2-4.1c0.4-1,0.8-2,1.2-3.1c0.5-1.5,0.9-3,1.2-4.5
						c0.2-1.1,0.4-2.3,0.5-3.5c0.1-1.1,0.2-2.2,0.2-3.4c0-0.7,0-1.5-0.1-2.2c-0.1-1.2-0.2-2.4-0.4-3.6c0-0.2-0.1-0.4-0.2-0.6
						c-0.6-6.1,5.5-10.4,11.4-13.2c2.6-1.3,5.3-2.2,7.2-3c0.2-0.1,0.4-0.1,0.5-0.2c0.7-0.3,1.5-0.4,2.3-0.4c0.2,0,0.5,0,0.7,0
						c0.7,0.1,1.4,0.2,2,0.4c-0.7-0.3-1.3-0.6-2-0.9c-1.1-0.4-2.1-0.7-3-1c0,0,0,0,0,0c-0.1,0-0.2-0.1-0.4-0.1
						c-1-0.3-1.9-0.5-2.7-0.7c-1.5-0.3-2.4-0.5-2.4-0.5s0.2,0,0.6-0.1c0.2,0,0.4,0,0.6,0h0c0.3,0,0.8,0,1.2,0c0.8,0,1.8,0,2.9,0.1
						c1.1,0.1,2.3,0.3,3.7,0.6c1.3,0.3,2.8,0.7,4.3,1.3c1.5,0.6,3,1.4,4.5,2.4c1.5,1,2.9,2.3,4,3.8c0.9,1.1,1.6,2.4,2.2,3.7
						c0.2,0.5,0.4,1,0.6,1.5c0.3,0.9,0.6,1.9,0.7,2.8c0.2,0.9,0.3,1.9,0.3,2.8c0,0.5,0.1,0.9,0,1.4v0.3c0,0.2,0,0.2,0,0.3l0,0.6
						c0,0.9-0.1,1.7-0.1,2.5v0c0,0.8-0.1,1.7-0.2,2.5c-0.1,0.8-0.1,1.6-0.2,2.4c0,0.2,0,0.3-0.1,0.5l0,0l0,0c1-1.6,2.1-3.6,3-5.6
						c2.2-4.7,4-10.1,3.9-14.6C336.2,43.2,336,41.7,335.4,40.4z M281.2,63.1c0,7.4-6.3,16.9-13.4,17c0,0,0,0,0,0
						c-2.6,0-5.6-1.5-8.1-4c-3.5-3.5-5.5-8.2-5.5-12.9v-6.4c0-5.5,4.8-9.8,10.9-9.8h5.8c5.9,0,10.4,4.1,10.4,9.6V63.1z"/>
					<polygon class="st4" points="264.1,146.7 262.6,146.7 262.6,145.5 267.5,145.5 267.5,144.2 262.6,144.2 262.6,142.6 
						266.7,142.6 266.7,143.5 268.5,143.5 268.5,141.4 259.5,141.4 259.5,142.6 260.6,142.6 260.6,146.7 259.5,146.7 259.5,147.9 
						264.1,147.9 					"/>
					<polygon class="st4" points="271.4,147.9 278,147.9 279.3,146.6 279.4,146.6 279.4,145.5 277.4,145.5 277.4,146.1 276.8,146.7 
						272.7,146.7 272.5,146.5 272.1,146 272.1,143.4 272.7,142.7 276.8,142.7 277.4,143.2 277.4,143.8 279.4,143.8 279.4,142.8 
						278,141.4 271.4,141.4 270.1,142.8 270.1,146.6 270.1,146.6 					"/>
					<path class="st4" d="M250.2,141.9l-12.4,1.2c0,0,3.8,3.9,5.5,4.5l9.4,1c4,2.8,10.8,5.5,16.4,5.5c6,0,12.4-2.8,16.2-5.5l9.1-1.1
						c1.7-0.6,5.5-4.5,5.5-4.5l-11.8-1.2c-2.4-3.4-10.7-5.5-19.1-5.5C260.7,136.4,252.8,138.7,250.2,141.9z M269,137.8
						c9.1,0,18,3,16.5,7.3c-0.9,2.6-9,7.7-16.5,7.7c-6.7,0-15.7-4.7-16.5-7.7C251.3,141.2,259.9,137.8,269,137.8z"/>
					<path class="st4" d="M250.8,15.3h34l3.7,13.6c0.6-0.4,1.2-0.7,1.8-1.1l-3.6-13l-0.4-1.5h-37.1l-0.4,1.6l-3.2,13
						c0.6,0.4,1.2,0.7,1.8,1.1L250.8,15.3z"/>
					<path class="st4" d="M333.7,106c0.4-1.8,0.3-3.6-0.2-5.3c-0.5-1.4-1.4-2.7-2.5-3.6c0-1.4-0.1-16-0.1-26.2l-1.7,2.4
						c0,10.3,0.1,23.1,0.1,24.7c1.2,0.7,2.2,1.8,2.6,3.2c0.6,1.6,0.5,3.5,0,5.2c0.6,0.7,1.1,1.4,1.3,1.9c1,2,1,4,1,5v22.1
						c0,1.7-0.7,3.3-2,4.4c-1.1,0.9-2.4,1.4-3.8,1.4c-0.3,0-0.6,0-0.9-0.1l-3.1-0.5c-0.4-0.1-0.7-0.2-1.1-0.3
						c-0.4,0.1-0.8,0.1-1.3,0.1c-0.4,0-0.8,0-1.1-0.1c-0.8-0.2-1.8-0.4-2.7-0.5c-3.5,5-7.7,9.7-12.6,13.9
						c-13.4,11.5-28.3,16.8-36.5,16.8c-4.3,0-10.3-1.6-16.8-4.4c-5-2.2-12.6-6.2-20.5-12.6c-5.2-4.3-9.7-8.9-13.4-13.9
						c-0.1,0-0.2,0-0.3,0c-0.2,0-0.4,0-0.7,0c-0.6,0-1.1-0.1-1.7-0.2c-0.7,0.4-1.4,0.7-2.2,0.8c-1.6,0.2-3.2,0.4-4.8,0.6
						c-0.3,0-0.5,0.1-0.8,0.1c-1.4,0-2.8-0.5-3.8-1.4c-1.3-1.1-2-2.7-2-4.4v-25.5c0-1.5,0.5-2.9,1.5-3.9c0.8-0.8,1.7-1.4,2.8-1.7v-1
						c0-6.5,0-21.3,0.1-31v0l-1.7-2.7c-0.1,9.4-0.1,26.4-0.1,33.6c-0.9,0.4-1.7,1-2.4,1.7c-1.3,1.4-2,3.2-2,5.1v25.5
						c0,2.2,0.9,4.2,2.6,5.7c1.4,1.2,3.1,1.9,5,1.9c0.3,0,0.7,0,1-0.1c1.6-0.2,3.2-0.4,4.8-0.6c0.8-0.1,1.5-0.3,2.2-0.6
						c0.5,0.1,1,0.1,1.5,0.1c0.1,0,0.1,0,0.2,0c3.7,4.8,8.1,9.3,13.2,13.5c8,6.6,15.8,10.6,20.9,12.9c6.7,3,12.9,4.6,17.5,4.6
						c8.5,0,23.9-5.4,37.6-17.2c4.7-4.1,8.8-8.5,12.2-13.3c0.5,0.1,1.1,0.2,1.6,0.3c0.5,0.1,1,0.1,1.5,0.1c0.4,0,0.7,0,1.1-0.1
						c0.3,0.1,0.6,0.2,1,0.2l3.1,0.5c0.4,0.1,0.8,0.1,1.2,0.1c1.8,0,3.5-0.6,4.9-1.8c1.7-1.4,2.6-3.5,2.6-5.7v-22.1
						c0-1,0-3.3-1.2-5.8C334.4,107,334,106.5,333.7,106z"/>
					<path class="st4" d="M317.7,107.1c0,0,0.1,0,0.2,0c0.4,0,1.5-0.1,2.3-1c1.3-1.3,0.8-2.8,0.8-2.8c-1.1,0-2.3,0-3.4,0
						C317.7,104.6,317.7,105.8,317.7,107.1z"/>
					<path class="st4" d="M232.3,118.9c-1.8,0.5-4.8,1.4-4.8,1.4s-1.5,0.2-1.5,1.9c0,1.7,0,9,0,9s0,1.6,1.5,1.6c1.5,0,4.2-0.1,5-0.2
						c1.2-0.1,1.9-1.7,2.3-2.7c0.1-0.2,0.2-0.1,0.2,0l0.5,2.4l3.5-0.3c0,0,0-9.7,0-17.8c0-2.6-0.8-4.5-5-4.5c-3.2,0-2.1,0-3.3,0
						c-2.3,0-4.6,0.8-4.6,4.1c0,2.2,0,3.7,0,3.7l4.2-1.3v-1.6c0,0-0.3-0.9,1-0.9c1.3,0,2,0,2,0s0.7,0.1,0.7,0.9c0,0.8,0,2.6,0,2.6
						S234.1,118.4,232.3,118.9z M233.8,121.2v5.1c0,0-1.4,2.3-3.1,2.3c-0.5,0-0.8-0.3-0.8-1c0-1,0-3.7,0-3.7s-0.1-1,1.4-1.4
						C232.2,122.2,233.8,121.8,233.8,121.2z"/>
					<path class="st4" d="M323.1,107.2c0.4,0,1.5-0.1,2.3-1c1.3-1.4,0.8-2.8,0.8-2.8c-1.1,0-2.3,0-3.4,0c0,1.3,0,2.5,0,3.8
						c0,0,0,0,0,0C322.9,107.2,323,107.2,323.1,107.2z"/>
					<path class="st4" d="M319.7,109.7c-1.3,0-4.2,0-4.2,3.2c0,2.1,0,4.8,0,4.8l4.1-1.2l0-2.4c0,0-0.1-1.1,1-1.1c1.1,0,2.2,0,2.2,0
						s0.6,0.1,0.6,1.2c0,0.1,0,3.3,0,3.3s0,1.5-1.1,1.8c-1.3,0.4-5.4,1.9-5.4,1.9s-1.2,0.2-1.2,1.4c0,1.2,0.1,9.9,0.1,9.9
						s0,1.5,1.1,1.7c1.1,0.1,5,0.9,5,0.9s1,0,1.4-0.7c0.3-0.5,0.6-1.3,0.8-1.8c0-0.1,0.1-0.3,0.2-0.3c0.1,0,0.1,0.2,0.1,0.2l0.9,2.9
						l3.3,0.5c0,0,0-17.3,0-22.1c0-1.2,0-3.9-3.3-3.9C323.3,109.7,321.1,109.7,319.7,109.7z"/>
					<path class="st4" d="M308.3,109.7c-1.9,0-4,0-5.3,0c-1.3,0-4.2,0-4.2,3.2c0,2.1,0,4.4,0,4.4l4.1-1.2l0-2c0,0-0.1-1.1,1-1.1
						c1.1,0,2.1,0,2.1,0s0.6,0.1,0.6,1.2c0,0.1,0,2.7,0,2.7s0.1,1.3-1.1,1.6c-1.3,0.4-5.2,1.9-5.2,1.9s-1.2,0.2-1.2,1.4
						c0,1.2-0.2,9.1-0.2,9.1s0.3,1.1,1.4,1.2c1.1,0.1,5,0.5,5,0.5s1,0,1.4-0.7c0.3-0.5,0.6-1.3,0.8-1.8c0-0.1,0.1-0.3,0.2-0.3
						c0.1,0,0.1,0.2,0.1,0.2l0.9,2.9l3.1,0.5c0,0,0-14.9,0-19.8C311.6,112.4,311.6,109.7,308.3,109.7z"/>
					<path class="st4" d="M247.1,109.8c-1.5,0-3,0-4.6,0c0,4.5,0,9,0,13.5c0,5,0,8.4,4.7,8.4c0.2,0,0.3,0,0.5,0
						c1.6-0.1,8.3-0.4,8.6-0.4c0,0,0,0,0,0c0-7.2,0-14.4,0-21.6c-1.5,0-3,0-4.6,0c0,5.9,0,11.9,0,17.8c0,0-1.6,0.1-2.8,0.1
						c-0.3,0-0.6,0-0.9,0c-1.3-0.1-1-3.2-1-5.9C247.1,117.8,247.1,113.8,247.1,109.8z"/>
					<path class="st4" d="M217.2,110c-0.1,0-0.1,0-0.2,0c-1.7,0-9.2-0.1-9.2-0.1c0,8.4,0,17.1,0,25.5c1.6-0.2,3.2-0.4,4.9-0.6
						c0-6.6,0-13.7,0-20.3c0,0,2.6,0,2.8,0c0.7,0,1.3,0.1,1.6,0.5c0.3,0.4,0.2,1,0.3,1.9c0,1.1,0,3,0,4.1c0,4.5,0,8.9,0,13.4
						c1.6-0.2,3.2-0.4,4.9-0.5c0-4.9,0-10.7,0-15.6c0,0,0,0,0,0C222.2,112.6,222.2,110,217.2,110z"/>
					<path class="st4" d="M259.5,124.8c0,0-0.1,0.7-0.1,1.7c0,0.2,0,0.4,0,0.6c0,2.4,2.4,4.3,4.6,4.3c0,0,0,0,0,0c1,0,2,0,3,0
						c2.3,0,4.7-1.9,4.7-4.3c0-1.5,0-3.1,0-4.6c0-0.9-0.5-2.2-1.2-2.8c-1.1-1-2.6-1.1-4-1.1c-0.9,0-2.6,0-2.6-1.1c0-0.5,0-3,0-3.3
						c0.1-1,1-1.3,1.7-1.3c1.7,0.1,1.7,1.5,1.7,3.3c1.5-0.4,2.9-0.9,4.4-1.3c0-0.3,0-0.7,0-1c0-2.4-2.4-4.3-4.7-4.3
						c-1,0-1.9,0-2.9,0c-2.3,0-4.7,2-4.7,4.3c0,1.5,0,3,0,4.5c0,0.9,0.5,2.2,1.2,2.8c1,0.9,2.5,1.1,3.8,1.1c0.5,0,0.9,0,1.4,0
						c0.3,0,0.7,0,1,0.2c0.3,0.2,0.5,0.6,0.5,1c0,0.5,0,0.7,0,1c0,0.3,0,0.6,0,0.9c0,0.6,0.1,1.1-0.1,1.6c-0.2,0.5-0.8,0.9-1.6,0.9
						c-0.4,0-1-0.2-1.3-0.4c-0.6-0.5-0.5-1.1-0.5-1.8C262.3,125.4,260.9,125.1,259.5,124.8z"/>
					<path class="st4" d="M289.3,113c0.5,0,1.4,0.4,1.4,1.1c0,0.7,0,2.3,0,3.2c1.5-0.3,2.9-0.7,4.4-1c0-0.7,0-1.5,0-2.2
						c0-2.4-2.3-4.5-4.7-4.5c-0.9,0-1.8,0-2.8,0c0,0,0,0,0,0c-2.3,0-4.6,2-4.6,4.3c0,4.5,0,8.9,0,13.4c0,2.4,2.4,4.4,4.7,4.5
						c0.9,0,1.8,0.1,2.8,0.1c0,0,0.1,0,0.2,0c2.3,0,4.5-1.8,4.5-4.2c0-0.4,0-0.9,0-1.3c-1.5-0.5-2.9-1.1-4.4-1.6c0,0.8,0,1.7,0,2.4
						c0,0.8-0.8,1.2-1.6,1.2c0,0,0,0,0,0c-1.4,0-1.6-1.2-1.6-2.3c0-3.4,0-7.2,0-10.6c0-0.9,0.1-1.7,0.4-2
						C288.3,113.1,288.5,113,289.3,113z"/>
					<path class="st4" d="M279.1,109.4c-1.4,0-2.8,0-4.2,0c0,7.3,0,14.6,0,22c1.4,0,2.8,0.1,4.2,0.1
						C279.2,124.1,279.1,116.8,279.1,109.4z"/>
				</g>
				<g>
					<path class="st1" d="M339.2,43.9c-0.1-1.7-0.4-3.2-1.1-4.7c-2-4.4-5.9-9.5-10.6-13.6c-3.1-2.7-9.3-7.3-15.3-7.4
						c-0.1,0-0.2,0-0.2,0c-7,0-11.5,3.4-15.9,6.7c-1.2,0.9-2.4,1.8-3.7,2.7c-3.3,2.2-6.2,3.7-6.2,3.7l-3.3-13.1h-30l-3.2,13.4
						c0,0-3.2-1.8-6.5-4c-1.3-0.9-2.5-1.8-3.7-2.7c-4.3-3.3-8.8-6.7-15.9-6.7c-0.1,0-0.2,0-0.2,0c-6,0.1-12.2,4.7-15.3,7.4
						c-4.7,4.1-8.7,9.2-10.6,13.6c-0.5,1.1-0.8,2.3-0.9,3.6c-0.3,3.5,0.6,8,2.7,13.2c0.4,1.1,0.9,2.1,1.4,3.1
						c2.3,4.9,5.2,9.4,8.6,13.6c0,0.1,0,0.1,0,0.1l0.3,0.4c-0.2,2.4-0.3,5-0.4,7.6c-0.1,3.7-0.2,7.5-0.2,11.7c0,3.4,0,6.9,0,10.7
						v2.3c0,0.4,0,0.8,0,1.2c-0.6,0-1.1,0-1.1,0c-0.9,0-1.8,0.4-2.4,1c-0.6,0.6-0.9,1.4-0.9,2.2v2.2v23.3c0,0.9,0.4,1.8,1.1,2.4
						c0.7,0.6,1.6,0.9,2.6,0.8c1.6-0.2,3.2-0.4,4.8-0.6c0.9-0.1,1.7-0.6,2.2-1.3c0.7,0.6,1.5,0.8,2.4,0.7c0.6-0.1,1.2-0.1,1.8-0.2
						c3.7,5.2,8.4,10.2,13.9,14.6c13.1,10.7,28.2,16.5,35.7,16.5c7.8,0,22-5.1,34.8-16.1c4.4-3.8,9.1-8.7,13-14.8
						c1,0.2,3.1,0.5,4.4,0.8c0.2,0,0.4,0.1,0.6,0.1c0.5,0,1-0.1,1.6-0.3c0.4,0.2,0.8,0.4,1.2,0.5l3.1,0.5c0.2,0,0.5,0.1,0.7,0.1
						c0.8,0,1.5-0.3,2.1-0.8c0.7-0.6,1.1-1.5,1.1-2.4v-22.1c0-0.2,0-0.3,0-0.6c0-0.9-0.1-2.1-0.7-3.3c-0.4-0.7-1-1.7-2.2-2.4
						c1.2-1.8,1-3.8,0.6-5.1c-0.4-1.1-1.4-2-2.5-2.2c-0.1,0-0.2,0-0.2,0v-1.5c0-2,0-3.9,0-5.7c0-4.2,0.1-8.2,0-11.8
						c0-2.5,0-4.8-0.1-7c0,0,0.3-0.4,0.3-0.4c1.1-1.7,2.4-3.2,3.6-4.9c1.7-2.4,3.7-5.9,5.4-9.9c0.4-0.9,0.8-1.8,1.1-2.8
						C338.2,52.6,339.4,48.1,339.2,43.9z M222.2,119c0,4.9,0,9.8,0,14.6c-1.6,0.2-3.2,0.3-4.9,0.5c0-4.5,0-8.9,0-13.4
						c0-1.1,0-3,0-4.1c0-0.8,0-1.5-0.3-1.9c-0.3-0.4-0.9-0.5-1.6-0.5c-0.2,0-2.8,0-2.8,0c0,6.6,0,13.7,0,20.3
						c-1.6,0.2-3.2,0.4-4.9,0.6c0-8.4,0-17.1,0-25.5c0,0,7.5,0.1,9.2,0.1c0.1,0,0.1,0,0.2,0c5,0,5,2.6,5,8
						C222.2,118.3,222.2,118.7,222.2,119z M241.3,64.6l-20.9-2.8c1.3-2.9,2.7-5.4,4.3-7.9c0.3-0.4,0.5-0.8,0.8-1.2l15.9,5.4
						c-0.2,1.2-0.3,2.3-0.3,3.4C241.2,62.6,241.3,63.6,241.3,64.6z M241.8,68.6c0.3,1.7,0.7,3.3,1.2,4.9l-27.5,6
						c0.6-3.9,1.4-7.4,2.3-10.5L241.8,68.6z M244.4,77.1c0.3,0.6,0.6,1.3,1,1.9l0.4,0.7l0,0l0,0l0.5,0.9c0.2,0.4,0.3,0.8,0.4,1.1v0
						L214,105.3v-2.1c0-4.8,0.1-9.1,0.4-13L244.4,77.1z M248,127.7c0.2,0,0.5,0,0.9,0c1.2,0,2.8-0.1,2.8-0.1c0-5.9,0-11.9,0-17.8
						c1.5,0,3,0,4.6,0c0,7.2,0,14.4,0,21.6c0,0,0,0,0,0c-0.3,0-6.9,0.4-8.6,0.4c-0.2,0-0.3,0-0.5,0c-4.7,0-4.7-3.4-4.7-8.4
						c0-4.5,0-9,0-13.5c1.5,0,3,0,4.6,0c0,4,0,8,0,12C247,124.5,246.7,127.6,248,127.7z M264.2,127.5c0.3,0.2,0.8,0.4,1.3,0.4
						c0.8,0,1.4-0.4,1.6-0.9c0.2-0.5,0.1-1,0.1-1.6c0-0.3,0-0.6,0-0.9c0-0.4,0-0.6,0-1c0-0.4-0.1-0.8-0.5-1c-0.3-0.2-0.6-0.2-1-0.2
						c-0.5,0-0.9,0-1.4,0c-1.3,0-2.8-0.2-3.8-1.1c-0.7-0.6-1.2-1.9-1.2-2.8c0-1.5,0-3,0-4.5c0-2.4,2.4-4.3,4.7-4.3c1,0,1.9,0,2.9,0
						c2.3,0,4.7,2,4.7,4.3c0,0.3,0,0.7,0,1c-1.5,0.4-2.9,0.9-4.4,1.3c0-1.8,0-3.2-1.7-3.3c-0.7,0-1.6,0.3-1.7,1.3c0,0.2,0,2.8,0,3.3
						c-0.1,1.2,1.7,1.1,2.6,1.1c1.4,0,2.9,0.1,4,1.1c0.7,0.6,1.2,1.9,1.2,2.8c0,1.5,0,3.1,0,4.6c0,2.4-2.4,4.3-4.7,4.3c-1,0-2,0-3,0
						c0,0,0,0,0,0c-2.3,0-4.7-1.9-4.6-4.3c0-0.2,0-0.4,0-0.6c0-0.9,0.1-1.7,0.1-1.7c1.4,0.3,2.8,0.6,4.3,0.9
						C263.7,126.4,263.6,127,264.2,127.5z M269,136.4c8.4,0,16.7,2.2,19.1,5.5l11.8,1.2c0,0-3.8,3.9-5.5,4.5l-9.1,1.1
						c-3.8,2.8-10.2,5.5-16.2,5.5c-5.6,0-12.4-2.7-16.4-5.5l-9.4-1c-1.7-0.6-5.5-4.5-5.5-4.5l12.4-1.2
						C252.8,138.7,260.7,136.4,269,136.4z M274.9,114.8c1.4,0,2.8,0,4.2,0c0,7.3,0,9.3,0,16.7c-1.4,0-2.8-0.1-4.2-0.1
						C274.9,124,274.9,122.1,274.9,114.8z M287.5,126.2c0,1.1,0.2,2.3,1.6,2.3c0,0,0,0,0,0c0.8,0,1.6-0.5,1.6-1.2c0-0.7,0-1.7,0-2.4
						c1.5,0.5,2.9,1,4.4,1.6c0,0.4,0,0.9,0,1.3c0,2.4-2.3,4.2-4.5,4.2c-0.1,0-0.1,0-0.2,0c-0.9,0-1.8-0.1-2.8-0.1
						c-2.3-0.1-4.7-2.2-4.7-4.5c0-4.5,0-8.9,0-13.4c0-2.4,2.4-4.3,4.6-4.3c0,0,0,0,0,0c0.9,0,1.8,0,2.8,0c2.3,0,4.7,2.1,4.7,4.5
						c0,0.7,0,1.5,0,2.2c-1.5,0.3-2.9,0.7-4.4,1c0-0.8,0-2.5,0-3.2c0-0.7-0.9-1.1-1.4-1.1c-0.8,0-1,0.1-1.5,0.5
						c-0.3,0.3-0.4,1.1-0.4,2C287.4,119,287.4,122.8,287.5,126.2z M233.8,117.4c0,0,0-1.8,0-2.6c0-0.8-0.7-0.9-0.7-0.9s-0.7,0-2,0
						c-0.8,0-1,0.3-1,0.9c0,0.6,0,1.6,0,1.6l-4.2,1.3c0,0,0-1.5,0-3.7c0-3.3,2.3-4.1,4.6-4.1c1.3,0,0.1,0,3.3,0c4.3,0,5,2,5,4.5
						c0,8.2,0,17.8,0,17.8l-3.5,0.3l-0.5-2.4c0-0.2-0.2-0.2-0.2,0c-0.3,1-1.1,2.5-2.3,2.7c-0.8,0.1-3.5,0.2-5,0.2
						c-1.5,0-1.5-1.6-1.5-1.6s0-7.3,0-9c0-1.7,1.3-1.9,1.8-2c1.2-0.4,2.7-0.8,4.6-1.3C234.1,118.4,233.8,117.4,233.8,117.4z
						 M300.6,148.3c-8.6,7.4-22.2,14.9-31.5,14.9c-6.7,0-20.7-5.7-32.5-15.3c-3.9-3.2-8.2-7.3-11.9-12.2c0.1-0.1,0.1-0.2,0.2-0.2
						c0.7,0.5,1.6,0.7,2.6,0.7c0.4,0,0.8,0,1.3,0c3,3.6,6.3,6.7,9.5,9.3c3.8,3.1,7.9,5.8,11.9,8c7.6,4.2,14.8,6.6,19,6.6
						c5.3,0,12.1-2.6,18.5-6.2c4.2-2.4,8.2-5.2,11.5-8c3-2.6,6.3-5.9,9.2-9.8l2.9,0.5c0.1,0,0.2,0,0.3,0
						C308,141.4,304.2,145.3,300.6,148.3z M311.6,133.4l-3.1-0.5l-0.9-2.9c0,0,0-0.2-0.1-0.2c-0.1,0-0.1,0.2-0.2,0.3
						c-0.2,0.5-0.5,1.4-0.8,1.8c-0.4,0.7-1.4,0.7-1.4,0.7s-3.8-0.3-5-0.5c-1.1-0.1-1.4-1.2-1.4-1.2s0.2-8,0.2-9.1
						c0-1.2,1.2-1.4,1.2-1.4s3.9-1.5,5.2-1.9c1.3-0.4,1.1-1.6,1.1-1.6s0-2.5,0-2.7c0-1.1-0.6-1.2-0.6-1.2s-0.9,0-2.1,0
						c-1.1,0-1,1.1-1,1.1l0,2l-4.1,1.2c0,0,0-2.3,0-4.4c0-3.2,2.9-3.2,4.2-3.2c1.3,0,3.4,0,5.3,0c3.3,0,3.3,2.7,3.3,3.9
						C311.6,118.5,311.6,133.4,311.6,133.4z M315.2,101.3l-26.9-19.4c0-0.1,0-0.1,0-0.2c0.9-1.4,1.7-2.9,2.4-4.5l30.7,13.4
						c0.1,2.5,0.1,5.2,0.1,8c0,0.3,0,0.6,0,0.9v0.6c-0.2,0-0.3,0-0.5,0h-3.4c-0.9,0-1.7,0.3-2.3,0.9
						C315.3,101.1,315.3,101.2,315.2,101.3z M293.8,58.5l18.7-6c1.7,2.6,3.2,5.6,4.4,9l-23,3.1c0.1-1,0.1-2,0.1-3
						C294.1,60.6,294,59.5,293.8,58.5z M319,68.8c0.7,3.3,1.3,7,1.7,11.1l-28.6-6.2c0.5-1.7,1-3.4,1.3-5.1L319,68.8z M320.2,106.1
						c-0.9,0.9-1.9,1-2.3,1c-0.1,0-0.2,0-0.2,0c0-1.2,0-2.5,0-3.7c1.1,0,2.3,0,3.4,0C321.1,103.3,321.5,104.8,320.2,106.1z
						 M328.5,113.6c0,4.9,0,22.1,0,22.1l-3.3-0.5l-0.9-2.9c0,0,0-0.2-0.1-0.2c-0.1,0-0.1,0.2-0.2,0.3c-0.2,0.5-0.5,1.4-0.8,1.8
						c-0.4,0.7-1.4,0.7-1.4,0.7s-3.8-0.7-5-0.9c-1.1-0.1-1.1-1.7-1.1-1.7s-0.1-8.7-0.1-9.9c0-1.2,1.2-1.4,1.2-1.4s4.1-1.5,5.4-1.9
						c1.1-0.3,1.1-1.8,1.1-1.8s0-3.1,0-3.3c0-1.1-0.6-1.2-0.6-1.2s-1.1,0-2.2,0c-1.1,0-1,1.1-1,1.1l0,2.4l-4.1,1.2c0,0,0-2.7,0-4.8
						c0-3.2,2.9-3.2,4.2-3.2c1.3,0,3.6,0,5.5,0C328.5,109.7,328.5,112.4,328.5,113.6z M322.9,103.3c1.1,0,2.3,0,3.4,0
						c0,0,0.5,1.4-0.8,2.8c-0.9,0.9-1.9,1-2.3,1c-0.1,0-0.2,0-0.2,0c0,0,0,0,0,0C322.9,105.9,322.9,104.6,322.9,103.3z M332.4,59.4
						c-1,2.1-2,4-3,5.6l0,0l0,0l-2,2.5l-0.7,0.8c0-1.2-0.1-2.5-0.1-3.9c0-1.4-0.1-2.8-0.1-4.3c0-0.2,0-0.3,0-0.5c0-0.1,0-0.3,0-0.4
						c0-0.4,0-0.9,0-1.3c0-0.3,0-0.5,0-0.8l0-0.6c0-0.1,0-0.2,0-0.3l0-0.3c0-0.3,0-0.6,0-1c0-0.1,0-0.2,0-0.3c0-0.1,0-0.3,0-0.4
						c0-0.1,0-0.1,0-0.2c0-0.4-0.1-0.8-0.2-1.2c0-0.1,0-0.3-0.1-0.4c0,0,0,0,0-0.1c0-0.1,0-0.1,0-0.2v0c0-0.1,0-0.3-0.1-0.4
						c0-0.1,0-0.1,0-0.2c0-0.2-0.1-0.4-0.1-0.6c-0.1-0.4-0.2-0.8-0.3-1.1c-0.2-0.5-0.4-1-0.6-1.5c-0.4-1-0.9-1.9-1.5-2.8
						c-0.1-0.1-0.2-0.2-0.3-0.4c-0.5-0.7-1-1.3-1.6-1.9c-0.4-0.4-0.8-0.8-1.3-1.2c-1.2-1-2.5-1.8-3.7-2.5c-0.6-0.3-1.2-0.6-1.8-0.9
						c0,0,0,0,0,0c-0.7-0.2-1.4-0.4-2-0.4c-0.2,0-0.5,0-0.7,0c-0.8,0-1.6,0.1-2.3,0.4c-0.2,0.1-0.3,0.1-0.5,0.2
						c-1.9,0.7-4.5,1.7-7.2,3c-5.9,2.8-12,7.1-11.4,13.2c0.1,0.2,0.1,0.4,0.2,0.6c0.2,1.2,0.3,2.4,0.4,3.6c0.1,0.7,0.1,1.5,0.1,2.2
						c0,1.1-0.1,2.3-0.2,3.4c-0.1,1.2-0.3,2.4-0.5,3.5c-0.3,1.6-0.7,3.1-1.2,4.5c-0.4,1-0.8,2.1-1.2,3.1c-0.6,1.4-1.4,2.8-2.2,4.1
						c-0.1,0.1-0.1,0.2-0.2,0.3c-0.5,1.5-0.6,3.4,1,4.8c3,2.7,7.3,7.5,4.1,17.3c-0.4,1.1-1.3,1.7-2.2,1.7c-1.1,0-2.2-0.9-2.2-3
						c0-2.7-1.1-7.3-5.8-10.1c-1.9-1.1-3.1-1.5-4.3-1.5c-0.8,0-1.6,0.2-2.6,0.4c-1.2,0.4-4,1-6.1,1c-1.9,0-4.3-0.5-5.4-0.8v0
						c-1.5-0.3-2.5-0.6-3.6-0.6c-1.2,0-2.4,0.4-4.2,1.5c-4.6,2.8-5.8,7.5-5.8,10.1c0,2.1-1.1,3-2.2,3c-0.9,0-1.8-0.6-2.2-1.7
						c-3.1-9.7,1.1-14.6,4.1-17.3c1.8-1.6,1.4-3.9,0.8-5.4c-0.1-0.3-0.2-0.5-0.3-0.7l-0.5-0.9l-0.4-0.7c-0.3-0.6-0.6-1.1-0.9-1.7
						c-0.5-1-0.9-2-1.2-3c-0.5-1.4-0.8-2.8-1.1-4.3c-0.2-1.1-0.4-2.3-0.5-3.6c-0.1-1.1-0.1-2.3-0.1-3.5c0-0.8,0.1-1.6,0.2-2.4
						c0,0,0,0,0,0c0.2-1.3,0.4-2.7,0.8-4c0-0.3,0-0.5,0-0.8c0-5.1-4.7-8.9-9.7-11.5c-2.8-1.5-5.6-2.6-7.9-3.4
						c-0.5-0.2-1.1-0.4-1.5-0.6c-0.8-0.3-1.5-0.4-2.3-0.4c-0.6,0-1.2,0.1-1.7,0.2h0c-0.6,0.3-1.3,0.6-1.9,1c0,0,0,0,0,0
						c-0.2,0.1-0.3,0.2-0.5,0.3c-1.3,0.7-2.5,1.6-3.7,2.6c-0.2,0.2-0.4,0.4-0.6,0.6h0c-0.8,0.7-1.4,1.5-2.1,2.4
						c-0.1,0.2-0.3,0.4-0.4,0.5c-0.4,0.7-0.8,1.4-1.2,2.1c-0.3,0.6-0.6,1.3-0.8,2c0,0,0,0,0,0c0,0,0,0.1,0,0.1
						c-0.2,0.8-0.4,1.6-0.6,2.3c-0.2,0.8-0.2,1.6-0.3,2.4c-0.1,1.6-0.1,3.3-0.1,5c0,0.2,0,0.4,0,0.5c0,0,0,0.1,0,0.1
						c0,0.3,0,0.6,0,0.9c0,0,0,0.1,0,0.1c0,0.5,0,1.1-0.1,1.6c0,0.5,0,1-0.1,1.4c0,1.1-0.1,2.1-0.1,3.1v0l-2.7-3.3l-0.1-0.1l0,0
						c-0.9-1.4-1.8-3-2.6-4.7c-2.6-5.2-4.9-11.2-4.7-15.9c0-1.3,0.3-2.4,0.7-3.4c3.5-8,15.1-19.2,23.2-19.3h0.2
						c7.8,0,12,4.9,17.9,8.9c2,1.3,3.9,2.5,5.7,3.6c0.1,0.1,0.3,0.2,0.4,0.2h0c2.5,1.4,4.7,2.4,6.1,2.4c0.1,0,0.2,0,0.2,0
						c1.5-0.2,1.6-2.9,1.6-2.9l0,0.4c0-0.2,0-0.3,0-0.5c0-0.1,0-0.2,0-0.3v-6c0-1.9,1.5-3.4,3.4-3.4h17.7c1.9,0,3.4,1.5,3.4,3.4v6.5
						c0,0.6,0.1,1.3,0.3,2.1c0.1,0.2,0.2,0.3,0.3,0.4c0.2,0.2,0.4,0.3,0.7,0.3c0.1,0,0.2,0,0.3,0c0.3,0,0.6,0,1-0.1
						c1.4-0.3,3.3-1.2,5.4-2.4h0c0.2-0.1,0.5-0.3,0.7-0.4c1.6-1,3.3-2.1,5-3.2c5.9-4,10.1-8.9,17.9-8.9h0.2
						c8.2,0.1,19.7,11.3,23.2,19.3c0.6,1.3,0.8,2.8,0.9,4.4C336.3,49.3,334.6,54.7,332.4,59.4z"/>
					<path class="st1" d="M233.8,121.2c0,0,0,3.8,0,5.4c0,1.1-1.3,2.2-3.1,2.2c-0.5,0-0.8-0.2-0.8-0.9c0-1,0-2.9,0-4.2
						c0-0.7,0-1,0.6-1.2C231.5,122.4,233.8,121.8,233.8,121.2z"/>
				</g>
				<g>
					<path class="st5" d="M269,152.8c7.5,0,15.7-5.1,16.5-7.7c1.4-4.3-7.4-7.3-16.5-7.3c-9.1,0-17.7,3.4-16.5,7.3
						C253.3,148.1,262.3,152.8,269,152.8z M270.1,142.8l1.4-1.4h6.6l1.3,1.3v1.1h-2v-0.6l-0.5-0.5h-4.1l-0.6,0.6v2.7l0.4,0.4
						l0.2,0.2h4.1l0.5-0.5v-0.6h2v1.1l0,0l-1.3,1.3h-6.6l-1.3-1.3l0,0V142.8z M259.5,146.7h1.1v-4.1h-1.1v-1.2h9v2h-1.8v-0.8h-4.1
						v1.5h4.9v1.3h-4.9v1.3h1.5v1.2h-4.6V146.7z"/>
					<path class="st5" d="M279.6,63.1c0,8.4-6.9,15.3-11.8,15.3c-4.9,0-12.1-6.8-12.1-15.3c0-3.1,0-6.4,0-6.4c0-4.4,3.9-8.2,9.3-8.2
						h5.8c5.3,0,8.8,3.6,8.8,7.9C279.6,56.5,279.6,60.5,279.6,63.1z"/>
				</g>
				<rect x="274.9" y="109.5" class="st4" width="4.2" height="3.1"/>
			</g>
		</g>
		<path class="st1" d="M307,120.8c0,0,0,3.8,0,5.4c0,1.1-1.3,2.2-3.1,2.2c-0.5,0-0.8-0.2-0.8-0.9c0-1,0-2.8,0-4c0-0.7,0-1,0.6-1.2
			C304.7,122,307,121.3,307,120.8z"/>
		<path class="st1" d="M323.7,122.1c0,0,0,4,0,5.6c0,1.2-1.3,2.3-3.1,2.3c-0.5,0-0.8-0.2-0.8-0.9c0-1.1,0-3,0-4.3c0-0.8,0-1,0.6-1.2
			C321.3,123.3,323.7,122.7,323.7,122.1z"/>
	</g>
</g>
</svg>
